<svg width="263" height="179" viewBox="0 0 263 179" fill="none" xmlns="http://www.w3.org/2000/svg">
<path d="M83.825 152H82.331V141.326H78.533V139.994H87.641V141.326H83.825V152ZM94.6536 152H93.3036V151.01C92.5716 151.814 91.6116 152.216 90.4236 152.216C89.6196 152.216 88.9116 151.958 88.2996 151.442C87.6876 150.926 87.3816 150.224 87.3816 149.336C87.3816 148.424 87.6816 147.722 88.2816 147.23C88.8936 146.726 89.6076 146.474 90.4236 146.474C91.6596 146.474 92.6196 146.87 93.3036 147.662V146.096C93.3036 145.52 93.0996 145.07 92.6916 144.746C92.2836 144.422 91.7556 144.26 91.1076 144.26C90.0876 144.26 89.1996 144.662 88.4436 145.466L87.8136 144.53C88.7376 143.57 89.8956 143.09 91.2876 143.09C92.2836 143.09 93.0936 143.33 93.7176 143.81C94.3416 144.29 94.6536 145.028 94.6536 146.024V152ZM90.9096 151.244C91.9896 151.244 92.7876 150.884 93.3036 150.164V148.526C92.7876 147.806 91.9896 147.446 90.9096 147.446C90.2856 147.446 89.7696 147.626 89.3616 147.986C88.9656 148.334 88.7676 148.79 88.7676 149.354C88.7676 149.906 88.9656 150.362 89.3616 150.722C89.7696 151.07 90.2856 151.244 90.9096 151.244ZM106.234 152H104.884V145.178L102.058 152H101.554L98.7098 145.178V152H97.3598V143.306H99.1418L101.806 149.75L104.434 143.306H106.234V152ZM115.838 150.902C115.058 151.778 114.02 152.216 112.724 152.216C111.428 152.216 110.384 151.778 109.592 150.902C108.812 150.026 108.422 148.94 108.422 147.644C108.422 146.348 108.812 145.268 109.592 144.404C110.384 143.528 111.428 143.09 112.724 143.09C114.02 143.09 115.058 143.528 115.838 144.404C116.63 145.268 117.026 146.348 117.026 147.644C117.026 148.94 116.63 150.026 115.838 150.902ZM110.6 150.038C111.128 150.686 111.836 151.01 112.724 151.01C113.612 151.01 114.314 150.686 114.83 150.038C115.346 149.378 115.604 148.58 115.604 147.644C115.604 146.708 115.346 145.916 114.83 145.268C114.314 144.62 113.612 144.296 112.724 144.296C111.836 144.296 111.128 144.626 110.6 145.286C110.084 145.934 109.826 146.72 109.826 147.644C109.826 148.58 110.084 149.378 110.6 150.038ZM119.189 152H117.461L121.331 147.248L117.479 143.306H119.189L122.933 147.14V143.306H124.283V147.122L128.027 143.306H129.737L125.867 147.248L129.755 152H128.027L124.895 148.094L124.283 148.706V152H122.933V148.706L122.321 148.094L119.189 152ZM135.227 152.216C133.931 152.216 132.869 151.796 132.041 150.956C131.213 150.104 130.799 149 130.799 147.644C130.799 146.372 131.207 145.298 132.023 144.422C132.839 143.534 133.859 143.09 135.083 143.09C136.367 143.09 137.381 143.534 138.125 144.422C138.881 145.298 139.259 146.408 139.259 147.752V148.094H132.221C132.281 148.946 132.593 149.66 133.157 150.236C133.721 150.812 134.453 151.1 135.353 151.1C136.433 151.1 137.327 150.734 138.035 150.002L138.683 150.884C137.795 151.772 136.643 152.216 135.227 152.216ZM137.927 147.104C137.915 146.36 137.663 145.694 137.171 145.106C136.679 144.506 135.977 144.206 135.065 144.206C134.201 144.206 133.517 144.5 133.013 145.088C132.521 145.676 132.257 146.348 132.221 147.104H137.927ZM142.796 152H141.446V143.306H142.796V146.924H147.332V143.306H148.682V152H147.332V148.112H142.796V152ZM152.727 152H151.377V143.306H152.727V146.924H157.263V143.306H158.613V152H157.263V148.112H152.727V152ZM168.221 150.902C167.441 151.778 166.403 152.216 165.107 152.216C163.811 152.216 162.767 151.778 161.975 150.902C161.195 150.026 160.805 148.94 160.805 147.644C160.805 146.348 161.195 145.268 161.975 144.404C162.767 143.528 163.811 143.09 165.107 143.09C166.403 143.09 167.441 143.528 168.221 144.404C169.013 145.268 169.409 146.348 169.409 147.644C169.409 148.94 169.013 150.026 168.221 150.902ZM162.983 150.038C163.511 150.686 164.219 151.01 165.107 151.01C165.995 151.01 166.697 150.686 167.213 150.038C167.729 149.378 167.987 148.58 167.987 147.644C167.987 146.708 167.729 145.916 167.213 145.268C166.697 144.62 165.995 144.296 165.107 144.296C164.219 144.296 163.511 144.626 162.983 145.286C162.467 145.934 162.209 146.72 162.209 147.644C162.209 148.58 162.467 149.378 162.983 150.038ZM175.534 152.216C174.238 152.216 173.176 151.796 172.348 150.956C171.52 150.104 171.106 149 171.106 147.644C171.106 146.372 171.514 145.298 172.33 144.422C173.146 143.534 174.166 143.09 175.39 143.09C176.674 143.09 177.688 143.534 178.432 144.422C179.188 145.298 179.566 146.408 179.566 147.752V148.094H172.528C172.588 148.946 172.9 149.66 173.464 150.236C174.028 150.812 174.76 151.1 175.66 151.1C176.74 151.1 177.634 150.734 178.342 150.002L178.99 150.884C178.102 151.772 176.95 152.216 175.534 152.216ZM178.234 147.104C178.222 146.36 177.97 145.694 177.478 145.106C176.986 144.506 176.284 144.206 175.372 144.206C174.508 144.206 173.824 144.5 173.32 145.088C172.828 145.676 172.564 146.348 172.528 147.104H178.234ZM61.135 172.902C60.355 173.778 59.317 174.216 58.021 174.216C56.725 174.216 55.681 173.778 54.889 172.902C54.109 172.026 53.719 170.94 53.719 169.644C53.719 168.348 54.109 167.268 54.889 166.404C55.681 165.528 56.725 165.09 58.021 165.09C59.317 165.09 60.355 165.528 61.135 166.404C61.927 167.268 62.323 168.348 62.323 169.644C62.323 170.94 61.927 172.026 61.135 172.902ZM55.897 172.038C56.425 172.686 57.133 173.01 58.021 173.01C58.909 173.01 59.611 172.686 60.127 172.038C60.643 171.378 60.901 170.58 60.901 169.644C60.901 168.708 60.643 167.916 60.127 167.268C59.611 166.62 58.909 166.296 58.021 166.296C57.133 166.296 56.425 166.626 55.897 167.286C55.381 167.934 55.123 168.72 55.123 169.644C55.123 170.58 55.381 171.378 55.897 172.038ZM67.3138 165.09C68.2978 165.09 69.0898 165.6 69.6898 166.62V161.994H71.0398V166.602C71.3038 166.146 71.6398 165.78 72.0478 165.504C72.4678 165.228 72.9178 165.09 73.3978 165.09C74.3338 165.09 75.0898 165.504 75.6658 166.332C76.2418 167.148 76.5298 168.252 76.5298 169.644C76.5298 171.036 76.2358 172.146 75.6478 172.974C75.0718 173.802 74.3218 174.216 73.3978 174.216C72.4138 174.216 71.6278 173.706 71.0398 172.686V177.312H69.6898V172.704C69.4258 173.16 69.0838 173.526 68.6638 173.802C68.2438 174.078 67.7938 174.216 67.3138 174.216C66.3778 174.216 65.6218 173.808 65.0458 172.992C64.4698 172.164 64.1818 171.054 64.1818 169.662C64.1818 168.27 64.4698 167.16 65.0458 166.332C65.6338 165.504 66.3898 165.09 67.3138 165.09ZM67.6918 166.296C67.0318 166.296 66.5098 166.614 66.1258 167.25C65.7418 167.874 65.5498 168.678 65.5498 169.662C65.5498 170.646 65.7418 171.45 66.1258 172.074C66.5098 172.698 67.0318 173.01 67.6918 173.01C68.0998 173.01 68.4898 172.878 68.8618 172.614C69.2338 172.35 69.5098 172.02 69.6898 171.624V167.7C69.4978 167.304 69.2158 166.974 68.8438 166.71C68.4718 166.434 68.0878 166.296 67.6918 166.296ZM73.0198 173.01C73.6798 173.01 74.2018 172.698 74.5858 172.074C74.9698 171.438 75.1618 170.628 75.1618 169.644C75.1618 168.66 74.9698 167.856 74.5858 167.232C74.2018 166.608 73.6798 166.296 73.0198 166.296C72.6238 166.296 72.2398 166.434 71.8678 166.71C71.4958 166.974 71.2198 167.298 71.0398 167.682V171.606C71.2318 172.002 71.5078 172.338 71.8678 172.614C72.2398 172.878 72.6238 173.01 73.0198 173.01ZM85.7972 172.902C85.0172 173.778 83.9792 174.216 82.6832 174.216C81.3872 174.216 80.3432 173.778 79.5512 172.902C78.7712 172.026 78.3812 170.94 78.3812 169.644C78.3812 168.348 78.7712 167.268 79.5512 166.404C80.3432 165.528 81.3872 165.09 82.6832 165.09C83.9792 165.09 85.0172 165.528 85.7972 166.404C86.5892 167.268 86.9852 168.348 86.9852 169.644C86.9852 170.94 86.5892 172.026 85.7972 172.902ZM80.5592 172.038C81.0872 172.686 81.7952 173.01 82.6832 173.01C83.5712 173.01 84.2732 172.686 84.7892 172.038C85.3052 171.378 85.5632 170.58 85.5632 169.644C85.5632 168.708 85.3052 167.916 84.7892 167.268C84.2732 166.62 83.5712 166.296 82.6832 166.296C81.7952 166.296 81.0872 166.626 80.5592 167.286C80.0432 167.934 79.7852 168.72 79.7852 169.644C79.7852 170.58 80.0432 171.378 80.5592 172.038ZM93.4699 174.216C92.2459 174.216 91.2679 173.706 90.5359 172.686V177.312H89.1859V165.306H90.5359V166.602C90.8599 166.146 91.2799 165.78 91.7959 165.504C92.3119 165.228 92.8699 165.09 93.4699 165.09C94.6219 165.09 95.5519 165.504 96.2599 166.332C96.9799 167.148 97.3399 168.252 97.3399 169.644C97.3399 171.036 96.9799 172.146 96.2599 172.974C95.5519 173.802 94.6219 174.216 93.4699 174.216ZM93.1279 173.01C93.9799 173.01 94.6579 172.698 95.1619 172.074C95.6659 171.438 95.9179 170.628 95.9179 169.644C95.9179 168.66 95.6659 167.856 95.1619 167.232C94.6579 166.608 93.9799 166.296 93.1279 166.296C92.6119 166.296 92.1079 166.434 91.6159 166.71C91.1359 166.974 90.7759 167.298 90.5359 167.682V171.606C90.7759 172.002 91.1359 172.338 91.6159 172.614C92.1079 172.878 92.6119 173.01 93.1279 173.01ZM108.361 174H107.011V167.178L104.185 174H103.681L100.837 167.178V174H99.4867V165.306H101.269L103.933 171.75L106.561 165.306H108.361V174ZM110.027 174.216V173.1C110.435 173.1 110.771 172.83 111.035 172.29C111.299 171.75 111.515 170.85 111.683 169.59L112.241 165.306H118.289V174H116.939V166.494H113.429L113.033 169.752C112.841 171.348 112.505 172.494 112.025 173.19C111.545 173.874 110.879 174.216 110.027 174.216ZM124.909 174.216C123.613 174.216 122.551 173.796 121.723 172.956C120.895 172.104 120.481 171 120.481 169.644C120.481 168.372 120.889 167.298 121.705 166.422C122.521 165.534 123.541 165.09 124.765 165.09C126.049 165.09 127.063 165.534 127.807 166.422C128.563 167.298 128.941 168.408 128.941 169.752V170.094H121.903C121.963 170.946 122.275 171.66 122.839 172.236C123.403 172.812 124.135 173.1 125.035 173.1C126.115 173.1 127.009 172.734 127.717 172.002L128.365 172.884C127.477 173.772 126.325 174.216 124.909 174.216ZM127.609 169.104C127.597 168.36 127.345 167.694 126.853 167.106C126.361 166.506 125.659 166.206 124.747 166.206C123.883 166.206 123.199 166.5 122.695 167.088C122.203 167.676 121.939 168.348 121.903 169.104H127.609ZM132.477 174H131.127V165.306H132.477V168.924H137.013V165.306H138.363V174H137.013V170.112H132.477V174ZM142.355 174H141.059V165.306H142.409V171.948L146.963 165.306H148.295V174H146.945V167.232L142.355 174ZM154.915 174.216C153.619 174.216 152.557 173.796 151.729 172.956C150.901 172.104 150.487 171 150.487 169.644C150.487 168.372 150.895 167.298 151.711 166.422C152.527 165.534 153.547 165.09 154.771 165.09C156.055 165.09 157.069 165.534 157.813 166.422C158.569 167.298 158.947 168.408 158.947 169.752V170.094H151.909C151.969 170.946 152.281 171.66 152.845 172.236C153.409 172.812 154.141 173.1 155.041 173.1C156.121 173.1 157.015 172.734 157.723 172.002L158.371 172.884C157.483 173.772 156.331 174.216 154.915 174.216ZM157.615 169.104C157.603 168.36 157.351 167.694 156.859 167.106C156.367 166.506 155.665 166.206 154.753 166.206C153.889 166.206 153.205 166.5 152.701 167.088C152.209 167.676 151.945 168.348 151.909 169.104H157.615ZM171.858 165.306V166.494H167.124V174H165.774V165.306H171.858ZM177.898 174.216C176.674 174.216 175.696 173.706 174.964 172.686V177.312H173.614V165.306H174.964V166.602C175.288 166.146 175.708 165.78 176.224 165.504C176.74 165.228 177.298 165.09 177.898 165.09C179.05 165.09 179.98 165.504 180.688 166.332C181.408 167.148 181.768 168.252 181.768 169.644C181.768 171.036 181.408 172.146 180.688 172.974C179.98 173.802 179.05 174.216 177.898 174.216ZM177.556 173.01C178.408 173.01 179.086 172.698 179.59 172.074C180.094 171.438 180.346 170.628 180.346 169.644C180.346 168.66 180.094 167.856 179.59 167.232C179.086 166.608 178.408 166.296 177.556 166.296C177.04 166.296 176.536 166.434 176.044 166.71C175.564 166.974 175.204 167.298 174.964 167.682V171.606C175.204 172.002 175.564 172.338 176.044 172.614C176.536 172.878 177.04 173.01 177.556 173.01ZM183.428 177.402L183.644 176.178C183.86 176.274 184.106 176.322 184.382 176.322C184.694 176.322 184.952 176.256 185.156 176.124C185.36 175.992 185.534 175.752 185.678 175.404L186.254 174.09L182.618 165.306H184.076L186.974 172.434L189.854 165.306H191.33L186.974 175.764C186.494 176.916 185.642 177.504 184.418 177.528C184.058 177.528 183.728 177.486 183.428 177.402ZM195.817 174.216C194.149 174.216 192.841 173.742 191.893 172.794L192.559 171.93C193.375 172.71 194.461 173.1 195.817 173.1C196.597 173.1 197.215 172.962 197.671 172.686C198.139 172.41 198.373 172.044 198.373 171.588C198.373 170.628 197.461 170.148 195.637 170.148H193.693V169.05H195.637C196.393 169.05 197.011 168.93 197.491 168.69C197.971 168.438 198.211 168.072 198.211 167.592C198.211 167.184 197.971 166.854 197.491 166.602C197.011 166.338 196.405 166.206 195.673 166.206C194.461 166.206 193.489 166.578 192.757 167.322L192.055 166.494C192.955 165.57 194.143 165.108 195.619 165.108C196.807 165.096 197.767 165.3 198.499 165.72C199.243 166.128 199.615 166.698 199.615 167.43C199.615 168.03 199.369 168.516 198.877 168.888C198.397 169.26 197.863 169.482 197.275 169.554C197.887 169.602 198.457 169.806 198.985 170.166C199.525 170.526 199.795 171.03 199.795 171.678C199.795 172.422 199.435 173.034 198.715 173.514C198.007 173.982 197.041 174.216 195.817 174.216ZM208.771 174H207.421V173.01C206.689 173.814 205.729 174.216 204.541 174.216C203.737 174.216 203.029 173.958 202.417 173.442C201.805 172.926 201.499 172.224 201.499 171.336C201.499 170.424 201.799 169.722 202.399 169.23C203.011 168.726 203.725 168.474 204.541 168.474C205.777 168.474 206.737 168.87 207.421 169.662V168.096C207.421 167.52 207.217 167.07 206.809 166.746C206.401 166.422 205.873 166.26 205.225 166.26C204.205 166.26 203.317 166.662 202.561 167.466L201.931 166.53C202.855 165.57 204.013 165.09 205.405 165.09C206.401 165.09 207.211 165.33 207.835 165.81C208.459 166.29 208.771 167.028 208.771 168.024V174ZM205.027 173.244C206.107 173.244 206.905 172.884 207.421 172.164V170.526C206.905 169.806 206.107 169.446 205.027 169.446C204.403 169.446 203.887 169.626 203.479 169.986C203.083 170.334 202.885 170.79 202.885 171.354C202.885 171.906 203.083 172.362 203.479 172.722C203.887 173.07 204.403 173.244 205.027 173.244Z" fill="white"/>
<rect x="75.5" y="0.5" width="112" height="112" rx="56" stroke="#6C7188"/>
<g filter="url(#filter0_d_5856_2236)">
<rect x="85" y="10" width="93" height="93" rx="46.5" fill="#89C249"/>
</g>
<g clip-path="url(#clip0_5856_2236)">
<path d="M146.327 55.6446V46.1822C146.327 45.9114 146.202 45.6611 146.025 45.4632L135.416 34.3231C135.218 34.1148 134.936 34 134.655 34H117.835C114.73 34 112.25 36.5322 112.25 39.6377V71.4428C112.25 74.5483 114.73 77.0389 117.835 77.0389H131.112C133.623 81.2073 138.188 84 143.388 84C151.287 84 157.738 77.5806 157.738 69.6712C157.748 62.7621 152.788 56.9889 146.327 55.6446ZM135.697 37.6579L142.815 45.1504H138.198C136.823 45.1504 135.697 44.0147 135.697 42.6391V37.6579ZM117.835 74.9546C115.887 74.9546 114.334 73.3913 114.334 71.4428V39.6377C114.334 37.6785 115.887 36.0844 117.835 36.0844H133.613V42.6391C133.613 45.1713 135.666 47.2347 138.198 47.2347H144.242V55.3734C143.93 55.3631 143.68 55.3318 143.409 55.3318C139.772 55.3318 136.427 56.7284 133.905 58.9168H120.67C120.097 58.9168 119.628 59.3857 119.628 59.9586C119.628 60.532 120.097 61.0008 120.67 61.0008H131.967C131.227 62.043 130.612 63.0852 130.133 64.2315H120.67C120.097 64.2315 119.628 64.7003 119.628 65.2737C119.628 65.8466 120.097 66.3158 120.67 66.3158H129.455C129.195 67.358 129.059 68.5146 129.059 69.6712C129.059 71.5469 129.424 73.402 130.08 74.9653H117.835V74.9546ZM143.399 81.9263C136.646 81.9263 131.154 76.4343 131.154 69.6815C131.154 62.9288 136.635 57.4367 143.399 57.4367C150.162 57.4367 155.643 62.9288 155.643 69.6815C155.643 76.4343 150.151 81.9263 143.399 81.9263Z" fill="white"/>
<path d="M120.667 55.7802H131.224C131.797 55.7802 132.266 55.3109 132.266 54.738C132.266 54.1646 131.797 53.6958 131.224 53.6958H120.667C120.094 53.6958 119.625 54.1646 119.625 54.738C119.625 55.3109 120.094 55.7802 120.667 55.7802Z" fill="white"/>
<path d="M149.064 64.9919L141.185 72.2032L137.33 68.0139C136.944 67.5867 136.277 67.5661 135.86 67.9514C135.433 68.337 135.412 69.0042 135.798 69.4208L140.362 74.3707C140.57 74.5897 140.852 74.7045 141.133 74.7045C141.383 74.7045 141.634 74.6107 141.842 74.4333L150.481 66.5136C150.908 66.1279 150.939 65.4607 150.544 65.0442C150.148 64.6272 149.491 64.596 149.064 64.9919Z" fill="white"/>
</g>
<defs>
<filter id="filter0_d_5856_2236" x="72" y="1" width="119" height="119" filterUnits="userSpaceOnUse" color-interpolation-filters="sRGB">
<feFlood flood-opacity="0" result="BackgroundImageFix"/>
<feColorMatrix in="SourceAlpha" type="matrix" values="0 0 0 0 0 0 0 0 0 0 0 0 0 0 0 0 0 0 127 0" result="hardAlpha"/>
<feOffset dy="4"/>
<feGaussianBlur stdDeviation="6.5"/>
<feColorMatrix type="matrix" values="0 0 0 0 0.117326 0 0 0 0 0.138241 0 0 0 0 0.258333 0 0 0 0.11 0"/>
<feBlend mode="multiply" in2="BackgroundImageFix" result="effect1_dropShadow_5856_2236"/>
<feBlend mode="normal" in="SourceGraphic" in2="effect1_dropShadow_5856_2236" result="shape"/>
</filter>
<clipPath id="clip0_5856_2236">
<rect width="50" height="50" fill="white" transform="translate(110 34)"/>
</clipPath>
</defs>
</svg>
