<svg width="263" height="157" viewBox="0 0 263 157" fill="none" xmlns="http://www.w3.org/2000/svg">
<path d="M70.2746 152.216C68.5226 152.216 67.0526 151.64 65.8646 150.488C64.6886 149.324 64.1006 147.83 64.1006 146.006C64.1006 144.182 64.6886 142.694 65.8646 141.542C67.0526 140.378 68.5226 139.796 70.2746 139.796C72.1946 139.796 73.7126 140.588 74.8286 142.172L73.5686 142.874C73.2206 142.358 72.7526 141.938 72.1646 141.614C71.5766 141.29 70.9466 141.128 70.2746 141.128C68.9546 141.128 67.8506 141.59 66.9626 142.514C66.0866 143.426 65.6486 144.59 65.6486 146.006C65.6486 147.422 66.0866 148.592 66.9626 149.516C67.8506 150.428 68.9546 150.884 70.2746 150.884C70.9466 150.884 71.5766 150.728 72.1646 150.416C72.7526 150.092 73.2206 149.666 73.5686 149.138L74.8466 149.84C73.6826 151.424 72.1586 152.216 70.2746 152.216ZM79.6307 152H78.2807V144.494H75.7607V143.306H82.1687V144.494H79.6307V152ZM88.2229 152.216C86.9989 152.216 86.0209 151.706 85.2889 150.686V155.312H83.9389V143.306H85.2889V144.602C85.6129 144.146 86.0329 143.78 86.5489 143.504C87.0649 143.228 87.6229 143.09 88.2229 143.09C89.3749 143.09 90.3049 143.504 91.0129 144.332C91.7329 145.148 92.0929 146.252 92.0929 147.644C92.0929 149.036 91.7329 150.146 91.0129 150.974C90.3049 151.802 89.3749 152.216 88.2229 152.216ZM87.8809 151.01C88.7329 151.01 89.4109 150.698 89.9149 150.074C90.4189 149.438 90.6709 148.628 90.6709 147.644C90.6709 146.66 90.4189 145.856 89.9149 145.232C89.4109 144.608 88.7329 144.296 87.8809 144.296C87.3649 144.296 86.8609 144.434 86.3689 144.71C85.8889 144.974 85.5289 145.298 85.2889 145.682V149.606C85.5289 150.002 85.8889 150.338 86.3689 150.614C86.8609 150.878 87.3649 151.01 87.8809 151.01ZM101.026 152H99.6756V151.01C98.9436 151.814 97.9836 152.216 96.7956 152.216C95.9916 152.216 95.2836 151.958 94.6716 151.442C94.0596 150.926 93.7536 150.224 93.7536 149.336C93.7536 148.424 94.0536 147.722 94.6536 147.23C95.2656 146.726 95.9796 146.474 96.7956 146.474C98.0316 146.474 98.9916 146.87 99.6756 147.662V146.096C99.6756 145.52 99.4716 145.07 99.0636 144.746C98.6556 144.422 98.1276 144.26 97.4796 144.26C96.4596 144.26 95.5716 144.662 94.8156 145.466L94.1856 144.53C95.1096 143.57 96.2676 143.09 97.6596 143.09C98.6556 143.09 99.4656 143.33 100.09 143.81C100.714 144.29 101.026 145.028 101.026 146.024V152ZM97.2816 151.244C98.3616 151.244 99.1596 150.884 99.6756 150.164V148.526C99.1596 147.806 98.3616 147.446 97.2816 147.446C96.6576 147.446 96.1416 147.626 95.7336 147.986C95.3376 148.334 95.1396 148.79 95.1396 149.354C95.1396 149.906 95.3376 150.362 95.7336 150.722C96.1416 151.07 96.6576 151.244 97.2816 151.244ZM110.932 152H109.366L106.756 148.436L104.146 152H102.598L105.928 147.536L102.778 143.306H104.344L106.756 146.618L109.168 143.306H110.734L107.584 147.536L110.932 152ZM118.73 150.902C117.95 151.778 116.912 152.216 115.616 152.216C114.32 152.216 113.276 151.778 112.484 150.902C111.704 150.026 111.314 148.94 111.314 147.644C111.314 146.348 111.704 145.268 112.484 144.404C113.276 143.528 114.32 143.09 115.616 143.09C116.912 143.09 117.95 143.528 118.73 144.404C119.522 145.268 119.918 146.348 119.918 147.644C119.918 148.94 119.522 150.026 118.73 150.902ZM113.492 150.038C114.02 150.686 114.728 151.01 115.616 151.01C116.504 151.01 117.206 150.686 117.722 150.038C118.238 149.378 118.496 148.58 118.496 147.644C118.496 146.708 118.238 145.916 117.722 145.268C117.206 144.62 116.504 144.296 115.616 144.296C114.728 144.296 114.02 144.626 113.492 145.286C112.976 145.934 112.718 146.72 112.718 147.644C112.718 148.58 112.976 149.378 113.492 150.038ZM126.997 152H122.119V143.306H126.907C127.663 143.306 128.257 143.51 128.689 143.918C129.133 144.326 129.355 144.866 129.355 145.538C129.355 146.03 129.217 146.456 128.941 146.816C128.677 147.164 128.347 147.398 127.951 147.518C128.395 147.626 128.767 147.884 129.067 148.292C129.379 148.7 129.535 149.15 129.535 149.642C129.535 150.35 129.307 150.92 128.851 151.352C128.407 151.784 127.789 152 126.997 152ZM126.727 150.812C127.159 150.812 127.501 150.692 127.753 150.452C128.005 150.212 128.131 149.888 128.131 149.48C128.131 149.108 128.005 148.79 127.753 148.526C127.501 148.262 127.159 148.13 126.727 148.13H123.469V150.812H126.727ZM126.673 146.942C127.081 146.942 127.399 146.834 127.627 146.618C127.855 146.39 127.969 146.096 127.969 145.736C127.969 145.352 127.855 145.052 127.627 144.836C127.399 144.608 127.081 144.494 126.673 144.494H123.469V146.942H126.673ZM139.735 152H138.007L134.875 148.094L133.435 149.516V152H132.085V143.306H133.435V147.932L138.007 143.306H139.717L135.865 147.248L139.735 152ZM148.117 152H146.767V151.01C146.035 151.814 145.075 152.216 143.887 152.216C143.083 152.216 142.375 151.958 141.763 151.442C141.151 150.926 140.845 150.224 140.845 149.336C140.845 148.424 141.145 147.722 141.745 147.23C142.357 146.726 143.071 146.474 143.887 146.474C145.123 146.474 146.083 146.87 146.767 147.662V146.096C146.767 145.52 146.563 145.07 146.155 144.746C145.747 144.422 145.219 144.26 144.571 144.26C143.551 144.26 142.663 144.662 141.907 145.466L141.277 144.53C142.201 143.57 143.359 143.09 144.751 143.09C145.747 143.09 146.557 143.33 147.181 143.81C147.805 144.29 148.117 145.028 148.117 146.024V152ZM144.373 151.244C145.453 151.244 146.251 150.884 146.767 150.164V148.526C146.251 147.806 145.453 147.446 144.373 147.446C143.749 147.446 143.233 147.626 142.825 147.986C142.429 148.334 142.231 148.79 142.231 149.354C142.231 149.906 142.429 150.362 142.825 150.722C143.233 151.07 143.749 151.244 144.373 151.244ZM161.548 143.306V144.494H156.814V152H155.464V143.306H161.548ZM167.588 152.216C166.364 152.216 165.386 151.706 164.654 150.686V155.312H163.304V143.306H164.654V144.602C164.978 144.146 165.398 143.78 165.914 143.504C166.43 143.228 166.988 143.09 167.588 143.09C168.74 143.09 169.67 143.504 170.378 144.332C171.098 145.148 171.458 146.252 171.458 147.644C171.458 149.036 171.098 150.146 170.378 150.974C169.67 151.802 168.74 152.216 167.588 152.216ZM167.246 151.01C168.098 151.01 168.776 150.698 169.28 150.074C169.784 149.438 170.036 148.628 170.036 147.644C170.036 146.66 169.784 145.856 169.28 145.232C168.776 144.608 168.098 144.296 167.246 144.296C166.73 144.296 166.226 144.434 165.734 144.71C165.254 144.974 164.894 145.298 164.654 145.682V149.606C164.894 150.002 165.254 150.338 165.734 150.614C166.226 150.878 166.73 151.01 167.246 151.01ZM173.119 155.402L173.335 154.178C173.551 154.274 173.797 154.322 174.073 154.322C174.385 154.322 174.643 154.256 174.847 154.124C175.051 153.992 175.225 153.752 175.369 153.404L175.945 152.09L172.309 143.306H173.767L176.665 150.434L179.545 143.306H181.021L176.665 153.764C176.185 154.916 175.333 155.504 174.109 155.528C173.749 155.528 173.419 155.486 173.119 155.402ZM185.507 152.216C183.839 152.216 182.531 151.742 181.583 150.794L182.249 149.93C183.065 150.71 184.151 151.1 185.507 151.1C186.287 151.1 186.905 150.962 187.361 150.686C187.829 150.41 188.063 150.044 188.063 149.588C188.063 148.628 187.151 148.148 185.327 148.148H183.383V147.05H185.327C186.083 147.05 186.701 146.93 187.181 146.69C187.661 146.438 187.901 146.072 187.901 145.592C187.901 145.184 187.661 144.854 187.181 144.602C186.701 144.338 186.095 144.206 185.363 144.206C184.151 144.206 183.179 144.578 182.447 145.322L181.745 144.494C182.645 143.57 183.833 143.108 185.309 143.108C186.497 143.096 187.457 143.3 188.189 143.72C188.933 144.128 189.305 144.698 189.305 145.43C189.305 146.03 189.059 146.516 188.567 146.888C188.087 147.26 187.553 147.482 186.965 147.554C187.577 147.602 188.147 147.806 188.675 148.166C189.215 148.526 189.485 149.03 189.485 149.678C189.485 150.422 189.125 151.034 188.405 151.514C187.697 151.982 186.731 152.216 185.507 152.216ZM198.461 152H197.111V151.01C196.379 151.814 195.419 152.216 194.231 152.216C193.427 152.216 192.719 151.958 192.107 151.442C191.495 150.926 191.189 150.224 191.189 149.336C191.189 148.424 191.489 147.722 192.089 147.23C192.701 146.726 193.415 146.474 194.231 146.474C195.467 146.474 196.427 146.87 197.111 147.662V146.096C197.111 145.52 196.907 145.07 196.499 144.746C196.091 144.422 195.563 144.26 194.915 144.26C193.895 144.26 193.007 144.662 192.251 145.466L191.621 144.53C192.545 143.57 193.703 143.09 195.095 143.09C196.091 143.09 196.901 143.33 197.525 143.81C198.149 144.29 198.461 145.028 198.461 146.024V152ZM194.717 151.244C195.797 151.244 196.595 150.884 197.111 150.164V148.526C196.595 147.806 195.797 147.446 194.717 147.446C194.093 147.446 193.577 147.626 193.169 147.986C192.773 148.334 192.575 148.79 192.575 149.354C192.575 149.906 192.773 150.362 193.169 150.722C193.577 151.07 194.093 151.244 194.717 151.244Z" fill="white"/>
<rect x="75.5" y="0.5" width="112" height="112" rx="56" stroke="#6C7188"/>
<g filter="url(#filter0_d_5856_2269)">
<rect x="85" y="10" width="93" height="93" rx="46.5" fill="#89C249"/>
</g>
<g clip-path="url(#clip0_5856_2269)">
<path d="M119.799 72.2541L130.529 79.5696C130.823 79.7689 131.208 79.7689 131.502 79.5696L142.235 72.2545C145.248 70.1995 147.707 65.5632 147.707 61.9187V46.569C147.704 46.2397 147.515 45.9402 147.219 45.7959L131.399 38.0275C131.16 37.9101 130.879 37.9101 130.639 38.0275L114.818 45.7724C114.521 45.9162 114.331 46.2157 114.328 46.5458V61.9187C114.328 65.5632 116.786 70.1995 119.799 72.2541ZM116.051 47.083L131.016 39.7603L145.984 47.1057V61.9187C145.984 64.9546 143.776 69.119 141.265 70.8308L131.021 77.8153L120.772 70.8308C118.261 69.119 116.051 64.9546 116.051 61.9187V47.083Z" fill="white"/>
<path d="M117.797 75.1759L130.523 83.8503C130.818 84.0501 131.205 84.0501 131.5 83.8503L144.234 75.1763C148.164 72.4967 151.259 66.673 151.259 61.9186V44.3658C151.253 44.0347 151.06 43.7357 150.762 43.5923L131.404 34.088C131.163 33.9707 130.882 33.9707 130.641 34.088L111.273 43.5662C110.973 43.7088 110.78 44.0083 110.773 44.3397V61.9186C110.773 66.673 113.867 72.4967 117.797 75.1759ZM112.496 44.8768L131.016 35.8209L149.536 44.902V61.9186C149.536 66.1624 146.773 71.3606 143.264 73.753L131.023 82.096L118.772 73.7526C115.263 71.361 112.496 66.1624 112.496 61.9186V44.8768Z" fill="white"/>
<path d="M127.984 66.9352C128.146 67.0963 128.366 67.1854 128.595 67.1829H128.597C128.824 67.1858 129.043 67.0975 129.206 66.9385L141.444 54.7033C141.606 54.5422 141.697 54.3235 141.697 54.0951C141.697 53.8667 141.606 53.648 141.444 53.4869L139.008 51.0517C138.672 50.7152 138.126 50.7152 137.79 51.0517L128.611 60.2304L124.266 55.8419C123.931 55.5037 123.386 55.5012 123.047 55.836L120.599 58.2603C120.437 58.4214 120.345 58.6401 120.344 58.8685C120.343 59.0956 120.433 59.3139 120.593 59.475L127.984 66.9352ZM123.648 57.6669L127.997 62.0701C128.156 62.2362 128.376 62.3326 128.606 62.3372H128.609C128.839 62.333 129.057 62.2379 129.218 62.073L138.399 52.8859L139.617 54.101L128.6 65.1173L122.424 58.8803L123.648 57.6669Z" fill="white"/>
</g>
<defs>
<filter id="filter0_d_5856_2269" x="72" y="1" width="119" height="119" filterUnits="userSpaceOnUse" color-interpolation-filters="sRGB">
<feFlood flood-opacity="0" result="BackgroundImageFix"/>
<feColorMatrix in="SourceAlpha" type="matrix" values="0 0 0 0 0 0 0 0 0 0 0 0 0 0 0 0 0 0 127 0" result="hardAlpha"/>
<feOffset dy="4"/>
<feGaussianBlur stdDeviation="6.5"/>
<feColorMatrix type="matrix" values="0 0 0 0 0.117326 0 0 0 0 0.138241 0 0 0 0 0.258333 0 0 0 0.11 0"/>
<feBlend mode="multiply" in2="BackgroundImageFix" result="effect1_dropShadow_5856_2269"/>
<feBlend mode="normal" in="SourceGraphic" in2="effect1_dropShadow_5856_2269" result="shape"/>
</filter>
<clipPath id="clip0_5856_2269">
<rect width="50" height="50" fill="white" transform="translate(106 34)"/>
</clipPath>
</defs>
</svg>
