<svg width="263" height="179" viewBox="0 0 263 179" fill="none" xmlns="http://www.w3.org/2000/svg">
<path d="M70.912 152H69.418V141.326H62.398V152H60.904V139.994H70.912V152ZM77.9485 152.216C76.7245 152.216 75.7465 151.706 75.0145 150.686V155.312H73.6645V143.306H75.0145V144.602C75.3385 144.146 75.7585 143.78 76.2745 143.504C76.7905 143.228 77.3485 143.09 77.9485 143.09C79.1005 143.09 80.0305 143.504 80.7385 144.332C81.4585 145.148 81.8185 146.252 81.8185 147.644C81.8185 149.036 81.4585 150.146 80.7385 150.974C80.0305 151.802 79.1005 152.216 77.9485 152.216ZM77.6065 151.01C78.4585 151.01 79.1365 150.698 79.6405 150.074C80.1445 149.438 80.3965 148.628 80.3965 147.644C80.3965 146.66 80.1445 145.856 79.6405 145.232C79.1365 144.608 78.4585 144.296 77.6065 144.296C77.0905 144.296 76.5865 144.434 76.0945 144.71C75.6145 144.974 75.2545 145.298 75.0145 145.682V149.606C75.2545 150.002 75.6145 150.338 76.0945 150.614C76.5865 150.878 77.0905 151.01 77.6065 151.01ZM90.8772 150.902C90.0972 151.778 89.0592 152.216 87.7632 152.216C86.4672 152.216 85.4232 151.778 84.6312 150.902C83.8512 150.026 83.4612 148.94 83.4612 147.644C83.4612 146.348 83.8512 145.268 84.6312 144.404C85.4232 143.528 86.4672 143.09 87.7632 143.09C89.0592 143.09 90.0972 143.528 90.8772 144.404C91.6692 145.268 92.0652 146.348 92.0652 147.644C92.0652 148.94 91.6692 150.026 90.8772 150.902ZM85.6392 150.038C86.1672 150.686 86.8752 151.01 87.7632 151.01C88.6512 151.01 89.3532 150.686 89.8692 150.038C90.3852 149.378 90.6432 148.58 90.6432 147.644C90.6432 146.708 90.3852 145.916 89.8692 145.268C89.3532 144.62 88.6512 144.296 87.7632 144.296C86.8752 144.296 86.1672 144.626 85.6392 145.286C85.1232 145.934 84.8652 146.72 84.8652 147.644C84.8652 148.58 85.1232 149.378 85.6392 150.038ZM99.144 152H94.266V143.306H99.054C99.81 143.306 100.404 143.51 100.836 143.918C101.28 144.326 101.502 144.866 101.502 145.538C101.502 146.03 101.364 146.456 101.088 146.816C100.824 147.164 100.494 147.398 100.098 147.518C100.542 147.626 100.914 147.884 101.214 148.292C101.526 148.7 101.682 149.15 101.682 149.642C101.682 150.35 101.454 150.92 100.998 151.352C100.554 151.784 99.936 152 99.144 152ZM98.874 150.812C99.306 150.812 99.648 150.692 99.9 150.452C100.152 150.212 100.278 149.888 100.278 149.48C100.278 149.108 100.152 148.79 99.9 148.526C99.648 148.262 99.306 148.13 98.874 148.13H95.616V150.812H98.874ZM98.82 146.942C99.228 146.942 99.546 146.834 99.774 146.618C100.002 146.39 100.116 146.096 100.116 145.736C100.116 145.352 100.002 145.052 99.774 144.836C99.546 144.608 99.228 144.494 98.82 144.494H95.616V146.942H98.82ZM108.157 152.216C106.861 152.216 105.799 151.796 104.971 150.956C104.143 150.104 103.729 149 103.729 147.644C103.729 146.372 104.137 145.298 104.953 144.422C105.769 143.534 106.789 143.09 108.013 143.09C109.297 143.09 110.311 143.534 111.055 144.422C111.811 145.298 112.189 146.408 112.189 147.752V148.094H105.151C105.211 148.946 105.523 149.66 106.087 150.236C106.651 150.812 107.383 151.1 108.283 151.1C109.363 151.1 110.257 150.734 110.965 150.002L111.613 150.884C110.725 151.772 109.573 152.216 108.157 152.216ZM110.857 147.104C110.845 146.36 110.593 145.694 110.101 145.106C109.609 144.506 108.907 144.206 107.995 144.206C107.131 144.206 106.447 144.5 105.943 145.088C105.451 145.676 105.187 146.348 105.151 147.104H110.857ZM118.659 152.216C117.435 152.216 116.457 151.706 115.725 150.686V155.312H114.375V143.306H115.725V144.602C116.049 144.146 116.469 143.78 116.985 143.504C117.501 143.228 118.059 143.09 118.659 143.09C119.811 143.09 120.741 143.504 121.449 144.332C122.169 145.148 122.529 146.252 122.529 147.644C122.529 149.036 122.169 150.146 121.449 150.974C120.741 151.802 119.811 152.216 118.659 152.216ZM118.317 151.01C119.169 151.01 119.847 150.698 120.351 150.074C120.855 149.438 121.107 148.628 121.107 147.644C121.107 146.66 120.855 145.856 120.351 145.232C119.847 144.608 119.169 144.296 118.317 144.296C117.801 144.296 117.297 144.434 116.805 144.71C116.325 144.974 115.965 145.298 115.725 145.682V149.606C115.965 150.002 116.325 150.338 116.805 150.614C117.297 150.878 117.801 151.01 118.317 151.01ZM132.326 152H130.598L127.466 148.094L126.026 149.516V152H124.676V143.306H126.026V147.932L130.598 143.306H132.308L128.456 147.248L132.326 152ZM140.708 152H139.358V151.01C138.626 151.814 137.666 152.216 136.478 152.216C135.674 152.216 134.966 151.958 134.354 151.442C133.742 150.926 133.436 150.224 133.436 149.336C133.436 148.424 133.736 147.722 134.336 147.23C134.948 146.726 135.662 146.474 136.478 146.474C137.714 146.474 138.674 146.87 139.358 147.662V146.096C139.358 145.52 139.154 145.07 138.746 144.746C138.338 144.422 137.81 144.26 137.162 144.26C136.142 144.26 135.254 144.662 134.498 145.466L133.868 144.53C134.792 143.57 135.95 143.09 137.342 143.09C138.338 143.09 139.148 143.33 139.772 143.81C140.396 144.29 140.708 145.028 140.708 146.024V152ZM136.964 151.244C138.044 151.244 138.842 150.884 139.358 150.164V148.526C138.842 147.806 138.044 147.446 136.964 147.446C136.34 147.446 135.824 147.626 135.416 147.986C135.02 148.334 134.822 148.79 134.822 149.354C134.822 149.906 135.02 150.362 135.416 150.722C135.824 151.07 136.34 151.244 136.964 151.244ZM150.989 152H149.639V144.494H147.119V143.306H153.527V144.494H150.989V152ZM162.209 150.902C161.429 151.778 160.391 152.216 159.095 152.216C157.799 152.216 156.755 151.778 155.963 150.902C155.183 150.026 154.793 148.94 154.793 147.644C154.793 146.348 155.183 145.268 155.963 144.404C156.755 143.528 157.799 143.09 159.095 143.09C160.391 143.09 161.429 143.528 162.209 144.404C163.001 145.268 163.397 146.348 163.397 147.644C163.397 148.94 163.001 150.026 162.209 150.902ZM156.971 150.038C157.499 150.686 158.207 151.01 159.095 151.01C159.983 151.01 160.685 150.686 161.201 150.038C161.717 149.378 161.975 148.58 161.975 147.644C161.975 146.708 161.717 145.916 161.201 145.268C160.685 144.62 159.983 144.296 159.095 144.296C158.207 144.296 157.499 144.626 156.971 145.286C156.455 145.934 156.197 146.72 156.197 147.644C156.197 148.58 156.455 149.378 156.971 150.038ZM170.476 152H165.598V143.306H170.386C171.142 143.306 171.736 143.51 172.168 143.918C172.612 144.326 172.834 144.866 172.834 145.538C172.834 146.03 172.696 146.456 172.42 146.816C172.156 147.164 171.826 147.398 171.43 147.518C171.874 147.626 172.246 147.884 172.546 148.292C172.858 148.7 173.014 149.15 173.014 149.642C173.014 150.35 172.786 150.92 172.33 151.352C171.886 151.784 171.268 152 170.476 152ZM170.206 150.812C170.638 150.812 170.98 150.692 171.232 150.452C171.484 150.212 171.61 149.888 171.61 149.48C171.61 149.108 171.484 148.79 171.232 148.526C170.98 148.262 170.638 148.13 170.206 148.13H166.948V150.812H170.206ZM170.152 146.942C170.56 146.942 170.878 146.834 171.106 146.618C171.334 146.39 171.448 146.096 171.448 145.736C171.448 145.352 171.334 145.052 171.106 144.836C170.878 144.608 170.56 144.494 170.152 144.494H166.948V146.942H170.152ZM182.351 152H181.001V151.01C180.269 151.814 179.309 152.216 178.121 152.216C177.317 152.216 176.609 151.958 175.997 151.442C175.385 150.926 175.079 150.224 175.079 149.336C175.079 148.424 175.379 147.722 175.979 147.23C176.591 146.726 177.305 146.474 178.121 146.474C179.357 146.474 180.317 146.87 181.001 147.662V146.096C181.001 145.52 180.797 145.07 180.389 144.746C179.981 144.422 179.453 144.26 178.805 144.26C177.785 144.26 176.897 144.662 176.141 145.466L175.511 144.53C176.435 143.57 177.593 143.09 178.985 143.09C179.981 143.09 180.791 143.33 181.415 143.81C182.039 144.29 182.351 145.028 182.351 146.024V152ZM178.607 151.244C179.687 151.244 180.485 150.884 181.001 150.164V148.526C180.485 147.806 179.687 147.446 178.607 147.446C177.983 147.446 177.467 147.626 177.059 147.986C176.663 148.334 176.465 148.79 176.465 149.354C176.465 149.906 176.663 150.362 177.059 150.722C177.467 151.07 177.983 151.244 178.607 151.244ZM189.341 152.216C188.117 152.216 187.139 151.706 186.407 150.686V155.312H185.057V143.306H186.407V144.602C186.731 144.146 187.151 143.78 187.667 143.504C188.183 143.228 188.741 143.09 189.341 143.09C190.493 143.09 191.423 143.504 192.131 144.332C192.851 145.148 193.211 146.252 193.211 147.644C193.211 149.036 192.851 150.146 192.131 150.974C191.423 151.802 190.493 152.216 189.341 152.216ZM188.999 151.01C189.851 151.01 190.529 150.698 191.033 150.074C191.537 149.438 191.789 148.628 191.789 147.644C191.789 146.66 191.537 145.856 191.033 145.232C190.529 144.608 189.851 144.296 188.999 144.296C188.483 144.296 187.979 144.434 187.487 144.71C187.007 144.974 186.647 145.298 186.407 145.682V149.606C186.647 150.002 187.007 150.338 187.487 150.614C187.979 150.878 188.483 151.01 188.999 151.01ZM202.144 152H200.794V151.01C200.062 151.814 199.102 152.216 197.914 152.216C197.11 152.216 196.402 151.958 195.79 151.442C195.178 150.926 194.872 150.224 194.872 149.336C194.872 148.424 195.172 147.722 195.772 147.23C196.384 146.726 197.098 146.474 197.914 146.474C199.15 146.474 200.11 146.87 200.794 147.662V146.096C200.794 145.52 200.59 145.07 200.182 144.746C199.774 144.422 199.246 144.26 198.598 144.26C197.578 144.26 196.69 144.662 195.934 145.466L195.304 144.53C196.228 143.57 197.386 143.09 198.778 143.09C199.774 143.09 200.584 143.33 201.208 143.81C201.832 144.29 202.144 145.028 202.144 146.024V152ZM198.4 151.244C199.48 151.244 200.278 150.884 200.794 150.164V148.526C200.278 147.806 199.48 147.446 198.4 147.446C197.776 147.446 197.26 147.626 196.852 147.986C196.456 148.334 196.258 148.79 196.258 149.354C196.258 149.906 196.456 150.362 196.852 150.722C197.26 151.07 197.776 151.244 198.4 151.244ZM102.454 174H101.104V165.306H102.454V168.924H106.99V165.306H108.34V174H106.99V170.112H102.454V174ZM117.822 174H116.472V173.01C115.74 173.814 114.78 174.216 113.592 174.216C112.788 174.216 112.08 173.958 111.468 173.442C110.856 172.926 110.55 172.224 110.55 171.336C110.55 170.424 110.85 169.722 111.45 169.23C112.062 168.726 112.776 168.474 113.592 168.474C114.828 168.474 115.788 168.87 116.472 169.662V168.096C116.472 167.52 116.268 167.07 115.86 166.746C115.452 166.422 114.924 166.26 114.276 166.26C113.256 166.26 112.368 166.662 111.612 167.466L110.982 166.53C111.906 165.57 113.064 165.09 114.456 165.09C115.452 165.09 116.262 165.33 116.886 165.81C117.51 166.29 117.822 167.028 117.822 168.024V174ZM114.078 173.244C115.158 173.244 115.956 172.884 116.472 172.164V170.526C115.956 169.806 115.158 169.446 114.078 169.446C113.454 169.446 112.938 169.626 112.53 169.986C112.134 170.334 111.936 170.79 111.936 171.354C111.936 171.906 112.134 172.362 112.53 172.722C112.938 173.07 113.454 173.244 114.078 173.244ZM126.842 172.038C127.37 172.686 128.078 173.01 128.966 173.01C129.854 173.01 130.556 172.686 131.072 172.038C131.588 171.378 131.846 170.574 131.846 169.626C131.846 168.702 131.588 167.916 131.072 167.268C130.556 166.62 129.854 166.296 128.966 166.296C128.078 166.296 127.37 166.62 126.842 167.268C126.326 167.916 126.068 168.702 126.068 169.626C126.068 170.574 126.326 171.378 126.842 172.038ZM128.966 174.216C127.658 174.216 126.614 173.754 125.834 172.83C125.054 171.906 124.664 170.712 124.664 169.248C124.664 167.184 125.036 165.66 125.78 164.676C126.524 163.68 127.67 163.08 129.218 162.876C130.142 162.732 130.778 162.594 131.126 162.462C131.486 162.33 131.666 162.174 131.666 161.994H132.98C132.98 162.33 132.878 162.624 132.674 162.876C132.47 163.116 132.176 163.308 131.792 163.452C131.42 163.596 131.066 163.71 130.73 163.794C130.406 163.866 130.016 163.932 129.56 163.992C128.36 164.16 127.49 164.49 126.95 164.982C126.422 165.474 126.074 166.128 125.906 166.944C126.698 165.708 127.79 165.09 129.182 165.09C130.382 165.09 131.36 165.528 132.116 166.404C132.872 167.28 133.25 168.354 133.25 169.626C133.25 170.922 132.86 172.014 132.08 172.902C131.3 173.778 130.262 174.216 128.966 174.216ZM139.841 174.216C138.617 174.216 137.639 173.706 136.907 172.686V177.312H135.557V165.306H136.907V166.602C137.231 166.146 137.651 165.78 138.167 165.504C138.683 165.228 139.241 165.09 139.841 165.09C140.993 165.09 141.923 165.504 142.631 166.332C143.351 167.148 143.711 168.252 143.711 169.644C143.711 171.036 143.351 172.146 142.631 172.974C141.923 173.802 140.993 174.216 139.841 174.216ZM139.499 173.01C140.351 173.01 141.029 172.698 141.533 172.074C142.037 171.438 142.289 170.628 142.289 169.644C142.289 168.66 142.037 167.856 141.533 167.232C141.029 166.608 140.351 166.296 139.499 166.296C138.983 166.296 138.479 166.434 137.987 166.71C137.507 166.974 137.147 167.298 136.907 167.682V171.606C137.147 172.002 137.507 172.338 137.987 172.614C138.479 172.878 138.983 173.01 139.499 173.01ZM152.644 174H151.294V173.01C150.562 173.814 149.602 174.216 148.414 174.216C147.61 174.216 146.902 173.958 146.29 173.442C145.678 172.926 145.372 172.224 145.372 171.336C145.372 170.424 145.672 169.722 146.272 169.23C146.884 168.726 147.598 168.474 148.414 168.474C149.65 168.474 150.61 168.87 151.294 169.662V168.096C151.294 167.52 151.09 167.07 150.682 166.746C150.274 166.422 149.746 166.26 149.098 166.26C148.078 166.26 147.19 166.662 146.434 167.466L145.804 166.53C146.728 165.57 147.886 165.09 149.278 165.09C150.274 165.09 151.084 165.33 151.708 165.81C152.332 166.29 152.644 167.028 152.644 168.024V174ZM148.9 173.244C149.98 173.244 150.778 172.884 151.294 172.164V170.526C150.778 169.806 149.98 169.446 148.9 169.446C148.276 169.446 147.76 169.626 147.352 169.986C146.956 170.334 146.758 170.79 146.758 171.354C146.758 171.906 146.956 172.362 147.352 172.722C147.76 173.07 148.276 173.244 148.9 173.244ZM163 174H161.272L158.14 170.094L156.7 171.516V174H155.35V165.306H156.7V169.932L161.272 165.306H162.982L159.13 169.248L163 174Z" fill="white"/>
<rect x="75.5" y="0.5" width="112" height="112" rx="56" stroke="#6C7188"/>
<g filter="url(#filter0_d_5856_2278)">
<rect x="85" y="10" width="93" height="93" rx="46.5" fill="#89C249"/>
</g>
<path d="M136.324 46.0169C134.907 44.6006 132.615 44.6004 131.198 46.0169L125.294 51.9207L123.82 50.4467C122.409 49.036 120.122 49.0312 118.706 50.4474C117.296 51.8575 117.296 54.1527 118.706 55.5628L124.612 61.471C125.043 61.9019 125.719 61.8887 126.136 61.466L136.34 51.1261C137.735 49.7132 137.728 47.4212 136.324 46.0169ZM134.811 49.617L125.367 59.1835L120.225 54.0418C119.653 53.4694 119.653 52.5381 120.225 51.9657C120.798 51.3923 121.727 51.3919 122.301 51.9657L124.535 54.1995C124.954 54.6187 125.634 54.619 126.054 54.1995L132.717 47.5361C133.294 46.9592 134.228 46.9591 134.804 47.5361C135.376 48.108 135.379 49.0415 134.811 49.617Z" fill="white"/>
<path d="M153.455 71.2266L142.934 62.2052C146.909 55.2687 145.765 46.49 140.082 40.8069C133.139 33.8642 121.901 33.8635 114.957 40.807C108.015 47.7498 108.014 58.9882 114.957 65.9319C120.772 71.747 129.522 72.6474 136.253 68.841L144.918 79.5315C147.147 82.2812 151.274 82.5123 153.792 79.9945C156.252 77.534 156.097 73.4912 153.455 71.2266ZM116.477 64.4119C110.374 58.3089 110.372 48.43 116.477 42.3258C122.58 36.2229 132.459 36.2219 138.563 42.3258C145.516 49.2797 144.416 61.1015 135.922 66.5358C135.922 66.5359 135.922 66.5362 135.921 66.5363C129.955 70.3516 121.826 69.7619 116.477 64.4119ZM152.272 78.4751C150.666 80.0816 148.02 79.9469 146.587 78.1785L138.067 67.6664C139.486 66.615 140.737 65.3612 141.744 64.0147L152.057 72.8576C153.743 74.3031 153.861 76.8866 152.272 78.4751Z" fill="white"/>
<defs>
<filter id="filter0_d_5856_2278" x="72" y="1" width="119" height="119" filterUnits="userSpaceOnUse" color-interpolation-filters="sRGB">
<feFlood flood-opacity="0" result="BackgroundImageFix"/>
<feColorMatrix in="SourceAlpha" type="matrix" values="0 0 0 0 0 0 0 0 0 0 0 0 0 0 0 0 0 0 127 0" result="hardAlpha"/>
<feOffset dy="4"/>
<feGaussianBlur stdDeviation="6.5"/>
<feColorMatrix type="matrix" values="0 0 0 0 0.117326 0 0 0 0 0.138241 0 0 0 0 0.258333 0 0 0 0.11 0"/>
<feBlend mode="multiply" in2="BackgroundImageFix" result="effect1_dropShadow_5856_2278"/>
<feBlend mode="normal" in="SourceGraphic" in2="effect1_dropShadow_5856_2278" result="shape"/>
</filter>
</defs>
</svg>
