<svg width="263" height="179" viewBox="0 0 263 179" fill="none" xmlns="http://www.w3.org/2000/svg">
<path d="M93.2459 154.214V150.794C93.7739 150.758 94.1939 150.632 94.5059 150.416C94.8179 150.2 95.0999 149.744 95.3519 149.048C95.6159 148.352 95.8319 147.344 95.9999 146.024L96.7379 139.994H104.082V150.668H105.18V154.214H103.686V152H94.7399V154.214H93.2459ZM97.4759 146.132C97.1999 148.448 96.5879 149.96 95.6399 150.668H102.588V141.326H98.0699L97.4759 146.132ZM113.94 150.902C113.16 151.778 112.122 152.216 110.826 152.216C109.53 152.216 108.486 151.778 107.694 150.902C106.914 150.026 106.524 148.94 106.524 147.644C106.524 146.348 106.914 145.268 107.694 144.404C108.486 143.528 109.53 143.09 110.826 143.09C112.122 143.09 113.16 143.528 113.94 144.404C114.732 145.268 115.128 146.348 115.128 147.644C115.128 148.94 114.732 150.026 113.94 150.902ZM108.702 150.038C109.23 150.686 109.938 151.01 110.826 151.01C111.714 151.01 112.416 150.686 112.932 150.038C113.448 149.378 113.706 148.58 113.706 147.644C113.706 146.708 113.448 145.916 112.932 145.268C112.416 144.62 111.714 144.296 110.826 144.296C109.938 144.296 109.23 144.626 108.702 145.286C108.186 145.934 107.928 146.72 107.928 147.644C107.928 148.58 108.186 149.378 108.702 150.038ZM121.163 152.216C119.879 152.216 118.835 151.784 118.031 150.92C117.227 150.044 116.825 148.952 116.825 147.644C116.825 146.336 117.227 145.25 118.031 144.386C118.835 143.522 119.879 143.09 121.163 143.09C122.507 143.09 123.569 143.594 124.349 144.602L123.449 145.43C122.897 144.674 122.159 144.296 121.235 144.296C120.323 144.296 119.591 144.608 119.039 145.232C118.499 145.856 118.229 146.66 118.229 147.644C118.229 148.628 118.499 149.438 119.039 150.074C119.591 150.698 120.323 151.01 121.235 151.01C122.147 151.01 122.885 150.632 123.449 149.876L124.349 150.704C123.569 151.712 122.507 152.216 121.163 152.216ZM129.175 152H127.825V144.494H125.305V143.306H131.713V144.494H129.175V152ZM140.269 152H138.919V151.01C138.187 151.814 137.227 152.216 136.039 152.216C135.235 152.216 134.527 151.958 133.915 151.442C133.303 150.926 132.997 150.224 132.997 149.336C132.997 148.424 133.297 147.722 133.897 147.23C134.509 146.726 135.223 146.474 136.039 146.474C137.275 146.474 138.235 146.87 138.919 147.662V146.096C138.919 145.52 138.715 145.07 138.307 144.746C137.899 144.422 137.371 144.26 136.723 144.26C135.703 144.26 134.815 144.662 134.059 145.466L133.429 144.53C134.353 143.57 135.511 143.09 136.903 143.09C137.899 143.09 138.709 143.33 139.333 143.81C139.957 144.29 140.269 145.028 140.269 146.024V152ZM136.525 151.244C137.605 151.244 138.403 150.884 138.919 150.164V148.526C138.403 147.806 137.605 147.446 136.525 147.446C135.901 147.446 135.385 147.626 134.977 147.986C134.581 148.334 134.383 148.79 134.383 149.354C134.383 149.906 134.581 150.362 134.977 150.722C135.385 151.07 135.901 151.244 136.525 151.244ZM147.853 152H142.975V143.306H147.763C148.519 143.306 149.113 143.51 149.545 143.918C149.989 144.326 150.211 144.866 150.211 145.538C150.211 146.03 150.073 146.456 149.797 146.816C149.533 147.164 149.203 147.398 148.807 147.518C149.251 147.626 149.623 147.884 149.923 148.292C150.235 148.7 150.391 149.15 150.391 149.642C150.391 150.35 150.163 150.92 149.707 151.352C149.263 151.784 148.645 152 147.853 152ZM147.583 150.812C148.015 150.812 148.357 150.692 148.609 150.452C148.861 150.212 148.987 149.888 148.987 149.48C148.987 149.108 148.861 148.79 148.609 148.526C148.357 148.262 148.015 148.13 147.583 148.13H144.325V150.812H147.583ZM147.529 146.942C147.937 146.942 148.255 146.834 148.483 146.618C148.711 146.39 148.825 146.096 148.825 145.736C148.825 145.352 148.711 145.052 148.483 144.836C148.255 144.608 147.937 144.494 147.529 144.494H144.325V146.942H147.529ZM160.592 152H158.864L155.732 148.094L154.292 149.516V152H152.942V143.306H154.292V147.932L158.864 143.306H160.574L156.722 147.248L160.592 152ZM168.974 152H167.624V151.01C166.892 151.814 165.932 152.216 164.744 152.216C163.94 152.216 163.232 151.958 162.62 151.442C162.008 150.926 161.702 150.224 161.702 149.336C161.702 148.424 162.002 147.722 162.602 147.23C163.214 146.726 163.928 146.474 164.744 146.474C165.98 146.474 166.94 146.87 167.624 147.662V146.096C167.624 145.52 167.42 145.07 167.012 144.746C166.604 144.422 166.076 144.26 165.428 144.26C164.408 144.26 163.52 144.662 162.764 145.466L162.134 144.53C163.058 143.57 164.216 143.09 165.608 143.09C166.604 143.09 167.414 143.33 168.038 143.81C168.662 144.29 168.974 145.028 168.974 146.024V152ZM165.23 151.244C166.31 151.244 167.108 150.884 167.624 150.164V148.526C167.108 147.806 166.31 147.446 165.23 147.446C164.606 147.446 164.09 147.626 163.682 147.986C163.286 148.334 163.088 148.79 163.088 149.354C163.088 149.906 163.286 150.362 163.682 150.722C164.09 151.07 164.606 151.244 165.23 151.244ZM61.6587 174H56.7807V165.306H61.5687C62.3247 165.306 62.9187 165.51 63.3507 165.918C63.7947 166.326 64.0167 166.866 64.0167 167.538C64.0167 168.03 63.8787 168.456 63.6027 168.816C63.3387 169.164 63.0087 169.398 62.6127 169.518C63.0567 169.626 63.4287 169.884 63.7287 170.292C64.0407 170.7 64.1967 171.15 64.1967 171.642C64.1967 172.35 63.9687 172.92 63.5127 173.352C63.0687 173.784 62.4507 174 61.6587 174ZM61.3887 172.812C61.8207 172.812 62.1627 172.692 62.4147 172.452C62.6667 172.212 62.7927 171.888 62.7927 171.48C62.7927 171.108 62.6667 170.79 62.4147 170.526C62.1627 170.262 61.8207 170.13 61.3887 170.13H58.1307V172.812H61.3887ZM61.3347 168.942C61.7427 168.942 62.0607 168.834 62.2887 168.618C62.5167 168.39 62.6307 168.096 62.6307 167.736C62.6307 167.352 62.5167 167.052 62.2887 166.836C62.0607 166.608 61.7427 166.494 61.3347 166.494H58.1307V168.942H61.3347ZM70.3621 174.216V173.1C70.7701 173.1 71.1061 172.83 71.3701 172.29C71.6341 171.75 71.8501 170.85 72.0181 169.59L72.5761 165.306H78.6241V174H77.2741V166.494H73.7641L73.3681 169.752C73.1761 171.348 72.8401 172.494 72.3601 173.19C71.8801 173.874 71.2141 174.216 70.3621 174.216ZM88.6097 174.216C87.4097 174.216 86.4197 173.832 85.6397 173.064C84.8717 172.284 84.4397 171.3 84.3437 170.112H82.6697V174H81.3197V165.306H82.6697V168.924H84.3617C84.5057 167.808 84.9557 166.89 85.7117 166.17C86.4797 165.45 87.4457 165.09 88.6097 165.09C89.9057 165.09 90.9497 165.528 91.7417 166.404C92.5337 167.268 92.9297 168.348 92.9297 169.644C92.9297 170.94 92.5337 172.026 91.7417 172.902C90.9497 173.778 89.9057 174.216 88.6097 174.216ZM88.6097 173.01C89.5097 173.01 90.2177 172.686 90.7337 172.038C91.2497 171.378 91.5077 170.58 91.5077 169.644C91.5077 168.708 91.2497 167.916 90.7337 167.268C90.2177 166.62 89.5097 166.296 88.6097 166.296C87.7337 166.296 87.0317 166.626 86.5037 167.286C85.9877 167.934 85.7297 168.72 85.7297 169.644C85.7297 170.58 85.9877 171.378 86.5037 172.038C87.0197 172.686 87.7217 173.01 88.6097 173.01ZM96.7926 172.038C97.3206 172.686 98.0286 173.01 98.9166 173.01C99.8046 173.01 100.507 172.686 101.023 172.038C101.539 171.378 101.797 170.574 101.797 169.626C101.797 168.702 101.539 167.916 101.023 167.268C100.507 166.62 99.8046 166.296 98.9166 166.296C98.0286 166.296 97.3206 166.62 96.7926 167.268C96.2766 167.916 96.0186 168.702 96.0186 169.626C96.0186 170.574 96.2766 171.378 96.7926 172.038ZM98.9166 174.216C97.6086 174.216 96.5646 173.754 95.7846 172.83C95.0046 171.906 94.6146 170.712 94.6146 169.248C94.6146 167.184 94.9866 165.66 95.7306 164.676C96.4746 163.68 97.6206 163.08 99.1686 162.876C100.093 162.732 100.729 162.594 101.077 162.462C101.437 162.33 101.617 162.174 101.617 161.994H102.931C102.931 162.33 102.829 162.624 102.625 162.876C102.421 163.116 102.127 163.308 101.743 163.452C101.371 163.596 101.017 163.71 100.681 163.794C100.357 163.866 99.9666 163.932 99.5106 163.992C98.3106 164.16 97.4406 164.49 96.9006 164.982C96.3726 165.474 96.0246 166.128 95.8566 166.944C96.6486 165.708 97.7406 165.09 99.1326 165.09C100.333 165.09 101.311 165.528 102.067 166.404C102.823 167.28 103.201 168.354 103.201 169.626C103.201 170.922 102.811 172.014 102.031 172.902C101.251 173.778 100.213 174.216 98.9166 174.216ZM112.419 172.902C111.639 173.778 110.601 174.216 109.305 174.216C108.009 174.216 106.965 173.778 106.173 172.902C105.393 172.026 105.003 170.94 105.003 169.644C105.003 168.348 105.393 167.268 106.173 166.404C106.965 165.528 108.009 165.09 109.305 165.09C110.601 165.09 111.639 165.528 112.419 166.404C113.211 167.268 113.607 168.348 113.607 169.644C113.607 170.94 113.211 172.026 112.419 172.902ZM107.181 172.038C107.709 172.686 108.417 173.01 109.305 173.01C110.193 173.01 110.895 172.686 111.411 172.038C111.927 171.378 112.185 170.58 112.185 169.644C112.185 168.708 111.927 167.916 111.411 167.268C110.895 166.62 110.193 166.296 109.305 166.296C108.417 166.296 107.709 166.626 107.181 167.286C106.665 167.934 106.407 168.72 106.407 169.644C106.407 170.58 106.665 171.378 107.181 172.038ZM117.104 174H115.808V165.306H117.158V171.948L121.712 165.306H123.044V174H121.694V167.232L117.104 174ZM122.576 162.732C121.796 163.788 120.746 164.316 119.426 164.316C118.118 164.316 117.062 163.788 116.258 162.732L116.924 162.156C117.548 163.02 118.382 163.452 119.426 163.452C120.482 163.452 121.31 163.02 121.91 162.156L122.576 162.732ZM136.464 165.306V166.494H131.73V174H130.38V165.306H136.464ZM145.132 172.902C144.352 173.778 143.314 174.216 142.018 174.216C140.722 174.216 139.678 173.778 138.886 172.902C138.106 172.026 137.716 170.94 137.716 169.644C137.716 168.348 138.106 167.268 138.886 166.404C139.678 165.528 140.722 165.09 142.018 165.09C143.314 165.09 144.352 165.528 145.132 166.404C145.924 167.268 146.32 168.348 146.32 169.644C146.32 170.94 145.924 172.026 145.132 172.902ZM139.894 172.038C140.422 172.686 141.13 173.01 142.018 173.01C142.906 173.01 143.608 172.686 144.124 172.038C144.64 171.378 144.898 170.58 144.898 169.644C144.898 168.708 144.64 167.916 144.124 167.268C143.608 166.62 142.906 166.296 142.018 166.296C141.13 166.296 140.422 166.626 139.894 167.286C139.378 167.934 139.12 168.72 139.12 169.644C139.12 170.58 139.378 171.378 139.894 172.038ZM152.805 174.216C151.581 174.216 150.603 173.706 149.871 172.686V177.312H148.521V165.306H149.871V166.602C150.195 166.146 150.615 165.78 151.131 165.504C151.647 165.228 152.205 165.09 152.805 165.09C153.957 165.09 154.887 165.504 155.595 166.332C156.315 167.148 156.675 168.252 156.675 169.644C156.675 171.036 156.315 172.146 155.595 172.974C154.887 173.802 153.957 174.216 152.805 174.216ZM152.463 173.01C153.315 173.01 153.993 172.698 154.497 172.074C155.001 171.438 155.253 170.628 155.253 169.644C155.253 168.66 155.001 167.856 154.497 167.232C153.993 166.608 153.315 166.296 152.463 166.296C151.947 166.296 151.443 166.434 150.951 166.71C150.471 166.974 150.111 167.298 149.871 167.682V171.606C150.111 172.002 150.471 172.338 150.951 172.614C151.443 172.878 151.947 173.01 152.463 173.01ZM165.734 172.902C164.954 173.778 163.916 174.216 162.62 174.216C161.324 174.216 160.28 173.778 159.488 172.902C158.708 172.026 158.318 170.94 158.318 169.644C158.318 168.348 158.708 167.268 159.488 166.404C160.28 165.528 161.324 165.09 162.62 165.09C163.916 165.09 164.954 165.528 165.734 166.404C166.526 167.268 166.922 168.348 166.922 169.644C166.922 170.94 166.526 172.026 165.734 172.902ZM160.496 172.038C161.024 172.686 161.732 173.01 162.62 173.01C163.508 173.01 164.21 172.686 164.726 172.038C165.242 171.378 165.5 170.58 165.5 169.644C165.5 168.708 165.242 167.916 164.726 167.268C164.21 166.62 163.508 166.296 162.62 166.296C161.732 166.296 161.024 166.626 160.496 167.286C159.98 167.934 159.722 168.72 159.722 169.644C159.722 170.58 159.98 171.378 160.496 172.038ZM168.096 176.214V172.884C168.54 172.8 168.888 172.536 169.14 172.092C169.392 171.636 169.596 170.802 169.752 169.59L170.31 165.306H176.358V172.812H177.366V176.214H176.016V174H169.446V176.214H168.096ZM171.498 166.494L171.102 169.752C170.898 171.276 170.478 172.296 169.842 172.812H175.008V166.494H171.498ZM185.401 174H183.907V161.994H188.731C189.895 161.994 190.813 162.342 191.485 163.038C192.157 163.734 192.493 164.592 192.493 165.612C192.493 166.632 192.151 167.49 191.467 168.186C190.795 168.882 189.883 169.23 188.731 169.23H185.401V174ZM188.551 167.898C189.259 167.898 189.835 167.688 190.279 167.268C190.723 166.836 190.945 166.284 190.945 165.612C190.945 164.94 190.723 164.394 190.279 163.974C189.835 163.542 189.259 163.326 188.551 163.326H185.401V167.898H188.551ZM201.059 174H199.565V172.83C197.837 172.71 196.475 172.218 195.479 171.354C194.483 170.49 193.985 169.374 193.985 168.006C193.985 166.65 194.483 165.54 195.479 164.676C196.475 163.812 197.837 163.32 199.565 163.2V161.994H201.059V163.2C202.775 163.32 204.137 163.818 205.145 164.694C206.153 165.558 206.657 166.662 206.657 168.006C206.657 169.374 206.153 170.49 205.145 171.354C204.149 172.218 202.787 172.71 201.059 172.83V174ZM204.029 170.382C204.749 169.758 205.109 168.966 205.109 168.006C205.109 167.046 204.749 166.254 204.029 165.63C203.309 165.006 202.319 164.64 201.059 164.532V171.48C202.319 171.372 203.309 171.006 204.029 170.382ZM196.595 165.63C195.887 166.254 195.533 167.046 195.533 168.006C195.533 168.966 195.887 169.758 196.595 170.382C197.315 171.006 198.305 171.372 199.565 171.48V164.532C198.305 164.64 197.315 165.006 196.595 165.63Z" fill="white"/>
<rect x="75.5" y="0.5" width="112" height="112" rx="56" stroke="#6C7188"/>
<g filter="url(#filter0_d_5856_2287)">
<rect x="85" y="10" width="93" height="93" rx="46.5" fill="#89C249"/>
</g>
<g clip-path="url(#clip0_5856_2287)">
<path d="M154.088 74.9405C153.021 74.9413 151.977 74.6254 151.089 74.0329C150.201 73.4403 149.509 72.5977 149.099 71.6116C148.69 70.6255 148.583 69.5402 148.791 68.493C148.999 67.4458 149.512 66.4838 150.267 65.7286C151.021 64.9734 151.983 64.459 153.03 64.2505C154.077 64.0419 155.163 64.1486 156.149 64.5569C157.135 64.9653 157.978 65.657 158.572 66.5447C159.165 67.4323 159.481 68.4759 159.481 69.5435C159.481 70.974 158.913 72.3457 157.901 73.3576C156.89 74.3695 155.519 74.9388 154.088 74.9405ZM154.088 66.1152C153.41 66.1145 152.747 66.3149 152.183 66.6911C151.618 67.0673 151.178 67.6025 150.918 68.2288C150.658 68.8552 150.59 69.5446 150.722 70.2099C150.853 70.8752 151.18 71.4864 151.659 71.9662C152.138 72.4461 152.749 72.773 153.414 72.9056C154.079 73.0382 154.769 72.9705 155.396 72.7112C156.022 72.4518 156.558 72.0124 156.935 71.4485C157.312 70.8847 157.513 70.2217 157.513 69.5435C157.512 68.635 157.152 67.7639 156.51 67.1211C155.868 66.4784 154.997 66.1166 154.088 66.1152Z" fill="white"/>
<path d="M125.652 74.9405C124.585 74.9415 123.541 74.6259 122.652 74.0335C121.764 73.4411 121.072 72.5985 120.662 71.6125C120.253 70.6264 120.145 69.5411 120.353 68.4938C120.561 67.4465 121.074 66.4844 121.829 65.7291C122.583 64.9738 123.545 64.4592 124.592 64.2506C125.639 64.0419 126.725 64.1485 127.711 64.5568C128.698 64.9651 129.541 65.6569 130.134 66.5445C130.727 67.4322 131.044 68.4758 131.044 69.5435C131.043 70.9736 130.475 72.345 129.464 73.3567C128.453 74.3685 127.082 74.938 125.652 74.9405ZM125.652 66.1152C124.974 66.1142 124.311 66.3144 123.746 66.6904C123.182 67.0665 122.742 67.6016 122.481 68.2279C122.221 68.8542 122.152 69.5437 122.284 70.2091C122.416 70.8744 122.742 71.4858 123.221 71.9658C123.7 72.4457 124.311 72.7728 124.976 72.9055C125.641 73.0382 126.331 72.9706 126.958 72.7113C127.584 72.452 128.12 72.0125 128.497 71.4487C128.874 70.8848 129.075 70.2217 129.075 69.5435C129.075 68.6354 128.714 67.7646 128.072 67.122C127.431 66.4793 126.56 66.1173 125.652 66.1152Z" fill="white"/>
<path d="M161.188 70.5278H158.496C158.235 70.5278 157.985 70.4241 157.8 70.2395C157.615 70.0549 157.512 69.8045 157.512 69.5434C157.512 69.2823 157.615 69.032 157.8 68.8473C157.985 68.6627 158.235 68.559 158.496 68.559H160.91V63.3392C160.909 62.6335 160.728 61.9396 160.385 61.3232L155.056 51.7695C155.011 51.688 154.944 51.6201 154.864 51.5728C154.783 51.5255 154.691 51.5005 154.598 51.5005H147.336V68.563H149.68C149.941 68.563 150.192 68.6667 150.376 68.8513C150.561 69.0359 150.664 69.2863 150.664 69.5473C150.664 69.8084 150.561 70.0588 150.376 70.2434C150.192 70.428 149.941 70.5317 149.68 70.5317H146.352C146.09 70.5317 145.84 70.428 145.656 70.2434C145.471 70.0588 145.367 69.8084 145.367 69.5473V50.5161C145.367 50.255 145.471 50.0047 145.656 49.8201C145.84 49.6354 146.09 49.5317 146.352 49.5317H154.598C155.042 49.5315 155.478 49.6499 155.861 49.8746C156.244 50.0994 156.56 50.4223 156.777 50.8101L162.104 60.3651C162.611 61.2746 162.877 62.2982 162.877 63.3392V68.8386C162.877 69.2864 162.698 69.7156 162.382 70.0323C162.065 70.3489 161.636 70.5271 161.188 70.5278Z" fill="white"/>
<path d="M121.243 70.528H111.805C111.544 70.528 111.293 70.4243 111.109 70.2397C110.924 70.0551 110.82 69.8047 110.82 69.5437V61.9731C110.82 61.7121 110.924 61.4617 111.109 61.2771C111.293 61.0925 111.544 60.9888 111.805 60.9888C112.066 60.9888 112.316 61.0925 112.501 61.2771C112.685 61.4617 112.789 61.7121 112.789 61.9731V68.5593H121.243C121.504 68.5593 121.754 68.663 121.939 68.8476C122.124 69.0322 122.227 69.2826 122.227 69.5437C122.227 69.8047 122.124 70.0551 121.939 70.2397C121.754 70.4243 121.504 70.528 121.243 70.528Z" fill="white"/>
<path d="M111.805 58.4803C111.544 58.4803 111.293 58.3766 111.109 58.192C110.924 58.0074 110.82 57.757 110.82 57.496V50.8862C110.82 50.6252 110.924 50.3748 111.109 50.1902C111.293 50.0056 111.544 49.9019 111.805 49.9019C112.066 49.9019 112.316 50.0056 112.501 50.1902C112.685 50.3748 112.789 50.6252 112.789 50.8862V57.4999C112.788 57.7603 112.684 58.0097 112.499 58.1934C112.315 58.3772 112.065 58.4803 111.805 58.4803Z" fill="white"/>
<path d="M146.356 70.5279H130.059C129.798 70.5279 129.547 70.4242 129.363 70.2396C129.178 70.055 129.075 69.8046 129.075 69.5436C129.075 69.2825 129.178 69.0321 129.363 68.8475C129.547 68.6629 129.798 68.5592 130.059 68.5592H145.372V42.8066H112.789V46.861C112.789 47.122 112.685 47.3724 112.501 47.557C112.316 47.7416 112.066 47.8453 111.805 47.8453C111.544 47.8453 111.293 47.7416 111.109 47.557C110.924 47.3724 110.82 47.122 110.82 46.861V42.6255C110.821 42.1514 111.01 41.6969 111.345 41.3618C111.681 41.0266 112.135 40.8382 112.609 40.8379H145.553C146.027 40.8386 146.481 41.0271 146.816 41.3622C147.151 41.6973 147.34 42.1516 147.341 42.6255V69.5436C147.341 69.8046 147.237 70.055 147.052 70.2396C146.868 70.4242 146.617 70.5279 146.356 70.5279Z" fill="white"/>
<path d="M115.697 62.9575H103.203C102.942 62.9575 102.692 62.8538 102.507 62.6692C102.322 62.4846 102.219 62.2342 102.219 61.9731C102.219 61.7121 102.322 61.4617 102.507 61.2771C102.692 61.0925 102.942 60.9888 103.203 60.9888H115.697C115.958 60.9888 116.208 61.0925 116.393 61.2771C116.577 61.4617 116.681 61.7121 116.681 61.9731C116.681 62.2342 116.577 62.4846 116.393 62.6692C116.208 62.8538 115.958 62.9575 115.697 62.9575Z" fill="white"/>
<path d="M125.653 58.4805H108.219C107.958 58.4805 107.707 58.3767 107.523 58.1921C107.338 58.0075 107.234 57.7572 107.234 57.4961C107.234 57.235 107.338 56.9846 107.523 56.8C107.707 56.6154 107.958 56.5117 108.219 56.5117H125.653C125.914 56.5117 126.164 56.6154 126.349 56.8C126.533 56.9846 126.637 57.235 126.637 57.4961C126.637 57.7572 126.533 58.0075 126.349 58.1921C126.164 58.3767 125.914 58.4805 125.653 58.4805Z" fill="white"/>
<path d="M107.675 53.2827H100.867C100.606 53.2827 100.356 53.179 100.171 52.9944C99.9865 52.8098 99.8828 52.5594 99.8828 52.2983C99.8828 52.0373 99.9865 51.7869 100.171 51.6023C100.356 51.4177 100.606 51.314 100.867 51.314H107.675C107.936 51.314 108.187 51.4177 108.371 51.6023C108.556 51.7869 108.659 52.0373 108.659 52.2983C108.659 52.5594 108.556 52.8098 108.371 52.9944C108.187 53.179 107.936 53.2827 107.675 53.2827Z" fill="white"/>
<path d="M118.588 47.8452H106.57C106.309 47.8452 106.059 47.7415 105.874 47.5569C105.69 47.3723 105.586 47.1219 105.586 46.8608C105.586 46.5998 105.69 46.3494 105.874 46.1648C106.059 45.9802 106.309 45.8765 106.57 45.8765H118.588C118.849 45.8765 119.099 45.9802 119.284 46.1648C119.468 46.3494 119.572 46.5998 119.572 46.8608C119.572 47.1219 119.468 47.3723 119.284 47.5569C119.099 47.7415 118.849 47.8452 118.588 47.8452Z" fill="white"/>
</g>
<defs>
<filter id="filter0_d_5856_2287" x="72" y="1" width="119" height="119" filterUnits="userSpaceOnUse" color-interpolation-filters="sRGB">
<feFlood flood-opacity="0" result="BackgroundImageFix"/>
<feColorMatrix in="SourceAlpha" type="matrix" values="0 0 0 0 0 0 0 0 0 0 0 0 0 0 0 0 0 0 127 0" result="hardAlpha"/>
<feOffset dy="4"/>
<feGaussianBlur stdDeviation="6.5"/>
<feColorMatrix type="matrix" values="0 0 0 0 0.117326 0 0 0 0 0.138241 0 0 0 0 0.258333 0 0 0 0.11 0"/>
<feBlend mode="multiply" in2="BackgroundImageFix" result="effect1_dropShadow_5856_2287"/>
<feBlend mode="normal" in="SourceGraphic" in2="effect1_dropShadow_5856_2287" result="shape"/>
</filter>
<clipPath id="clip0_5856_2287">
<rect width="63" height="63" fill="white" transform="translate(100 26)"/>
</clipPath>
</defs>
</svg>
