<svg width="263" height="179" viewBox="0 0 263 179" fill="none" xmlns="http://www.w3.org/2000/svg">
<path d="M82.5364 152H80.6824L76.1284 146.6L74.9224 147.968V152H73.4284V139.994H74.9224V146.204L80.2324 139.994H82.1044L77.1004 145.7L82.5364 152ZM90.4817 150.902C89.7017 151.778 88.6637 152.216 87.3677 152.216C86.0717 152.216 85.0277 151.778 84.2357 150.902C83.4557 150.026 83.0657 148.94 83.0657 147.644C83.0657 146.348 83.4557 145.268 84.2357 144.404C85.0277 143.528 86.0717 143.09 87.3677 143.09C88.6637 143.09 89.7017 143.528 90.4817 144.404C91.2737 145.268 91.6697 146.348 91.6697 147.644C91.6697 148.94 91.2737 150.026 90.4817 150.902ZM85.2437 150.038C85.7717 150.686 86.4797 151.01 87.3677 151.01C88.2557 151.01 88.9577 150.686 89.4737 150.038C89.9897 149.378 90.2477 148.58 90.2477 147.644C90.2477 146.708 89.9897 145.916 89.4737 145.268C88.9577 144.62 88.2557 144.296 87.3677 144.296C86.4797 144.296 85.7717 144.626 85.2437 145.286C84.7277 145.934 84.4697 146.72 84.4697 147.644C84.4697 148.58 84.7277 149.378 85.2437 150.038ZM95.2205 152H93.8705V143.306H95.2205V146.924H99.7565V143.306H101.107V152H99.7565V148.112H95.2205V152ZM107.636 152.216C106.352 152.216 105.308 151.784 104.504 150.92C103.7 150.044 103.298 148.952 103.298 147.644C103.298 146.336 103.7 145.25 104.504 144.386C105.308 143.522 106.352 143.09 107.636 143.09C108.98 143.09 110.042 143.594 110.822 144.602L109.922 145.43C109.37 144.674 108.632 144.296 107.708 144.296C106.796 144.296 106.064 144.608 105.512 145.232C104.972 145.856 104.702 146.66 104.702 147.644C104.702 148.628 104.972 149.438 105.512 150.074C106.064 150.698 106.796 151.01 107.708 151.01C108.62 151.01 109.358 150.632 109.922 149.876L110.822 150.704C110.042 151.712 108.98 152.216 107.636 152.216ZM119.626 150.902C118.846 151.778 117.808 152.216 116.512 152.216C115.216 152.216 114.172 151.778 113.38 150.902C112.6 150.026 112.21 148.94 112.21 147.644C112.21 146.348 112.6 145.268 113.38 144.404C114.172 143.528 115.216 143.09 116.512 143.09C117.808 143.09 118.846 143.528 119.626 144.404C120.418 145.268 120.814 146.348 120.814 147.644C120.814 148.94 120.418 150.026 119.626 150.902ZM114.388 150.038C114.916 150.686 115.624 151.01 116.512 151.01C117.4 151.01 118.102 150.686 118.618 150.038C119.134 149.378 119.392 148.58 119.392 147.644C119.392 146.708 119.134 145.916 118.618 145.268C118.102 144.62 117.4 144.296 116.512 144.296C115.624 144.296 114.916 144.626 114.388 145.286C113.872 145.934 113.614 146.72 113.614 147.644C113.614 148.58 113.872 149.378 114.388 150.038ZM121.989 152.216V151.1C122.397 151.1 122.733 150.83 122.997 150.29C123.261 149.75 123.477 148.85 123.645 147.59L124.203 143.306H130.251V152H128.901V144.494H125.391L124.995 147.752C124.803 149.348 124.467 150.494 123.987 151.19C123.507 151.874 122.841 152.216 121.989 152.216ZM134.243 152H132.947V143.306H134.297V149.948L138.851 143.306H140.183V152H138.833V145.232L134.243 152ZM141.852 154.214V150.884C142.296 150.8 142.644 150.536 142.896 150.092C143.148 149.636 143.352 148.802 143.508 147.59L144.066 143.306H150.114V150.812H151.122V154.214H149.772V152H143.202V154.214H141.852ZM145.254 144.494L144.858 147.752C144.654 149.276 144.234 150.296 143.598 150.812H148.764V144.494H145.254ZM159.754 152H158.404V151.01C157.672 151.814 156.712 152.216 155.524 152.216C154.72 152.216 154.012 151.958 153.4 151.442C152.788 150.926 152.482 150.224 152.482 149.336C152.482 148.424 152.782 147.722 153.382 147.23C153.994 146.726 154.708 146.474 155.524 146.474C156.76 146.474 157.72 146.87 158.404 147.662V146.096C158.404 145.52 158.2 145.07 157.792 144.746C157.384 144.422 156.856 144.26 156.208 144.26C155.188 144.26 154.3 144.662 153.544 145.466L152.914 144.53C153.838 143.57 154.996 143.09 156.388 143.09C157.384 143.09 158.194 143.33 158.818 143.81C159.442 144.29 159.754 145.028 159.754 146.024V152ZM156.01 151.244C157.09 151.244 157.888 150.884 158.404 150.164V148.526C157.888 147.806 157.09 147.446 156.01 147.446C155.386 147.446 154.87 147.626 154.462 147.986C154.066 148.334 153.868 148.79 153.868 149.354C153.868 149.906 154.066 150.362 154.462 150.722C154.87 151.07 155.386 151.244 156.01 151.244ZM169.354 154.214V152H162.46V143.306H163.81V150.812H168.346V143.306H169.696V150.812H170.704V154.214H169.354ZM173.846 152H172.55V143.306H173.9V149.948L178.454 143.306H179.786V152H178.436V145.232L173.846 152ZM183.778 152H182.194L184.516 148.58C183.856 148.496 183.316 148.22 182.896 147.752C182.488 147.284 182.284 146.69 182.284 145.97C182.284 145.202 182.53 144.566 183.022 144.062C183.514 143.558 184.186 143.306 185.038 143.306H189.628V152H188.278V148.634H185.902L183.778 152ZM185.182 147.446H188.278V144.494H185.182C184.714 144.494 184.342 144.632 184.066 144.908C183.802 145.172 183.67 145.526 183.67 145.97C183.67 146.414 183.802 146.774 184.066 147.05C184.33 147.314 184.702 147.446 185.182 147.446ZM93.2605 174H91.9105V165.306H93.2605V168.924H97.7965V165.306H99.1465V174H97.7965V170.112H93.2605V174ZM108.628 174H107.278V173.01C106.546 173.814 105.586 174.216 104.398 174.216C103.594 174.216 102.886 173.958 102.274 173.442C101.662 172.926 101.356 172.224 101.356 171.336C101.356 170.424 101.656 169.722 102.256 169.23C102.868 168.726 103.582 168.474 104.398 168.474C105.634 168.474 106.594 168.87 107.278 169.662V168.096C107.278 167.52 107.074 167.07 106.666 166.746C106.258 166.422 105.73 166.26 105.082 166.26C104.062 166.26 103.174 166.662 102.418 167.466L101.788 166.53C102.712 165.57 103.87 165.09 105.262 165.09C106.258 165.09 107.068 165.33 107.692 165.81C108.316 166.29 108.628 167.028 108.628 168.024V174ZM104.884 173.244C105.964 173.244 106.762 172.884 107.278 172.164V170.526C106.762 169.806 105.964 169.446 104.884 169.446C104.26 169.446 103.744 169.626 103.336 169.986C102.94 170.334 102.742 170.79 102.742 171.354C102.742 171.906 102.94 172.362 103.336 172.722C103.744 173.07 104.26 173.244 104.884 173.244ZM119.809 174.216C118.525 174.216 117.481 173.784 116.677 172.92C115.873 172.044 115.471 170.952 115.471 169.644C115.471 168.336 115.873 167.25 116.677 166.386C117.481 165.522 118.525 165.09 119.809 165.09C121.153 165.09 122.215 165.594 122.995 166.602L122.095 167.43C121.543 166.674 120.805 166.296 119.881 166.296C118.969 166.296 118.237 166.608 117.685 167.232C117.145 167.856 116.875 168.66 116.875 169.644C116.875 170.628 117.145 171.438 117.685 172.074C118.237 172.698 118.969 173.01 119.881 173.01C120.793 173.01 121.531 172.632 122.095 171.876L122.995 172.704C122.215 173.712 121.153 174.216 119.809 174.216ZM132.537 174H130.809L127.677 170.094L126.237 171.516V174H124.887V165.306H126.237V169.932L130.809 165.306H132.519L128.667 169.248L132.537 174ZM133.107 174.216V173.1C133.515 173.1 133.851 172.83 134.115 172.29C134.379 171.75 134.595 170.85 134.763 169.59L135.321 165.306H141.369V174H140.019V166.494H136.509L136.113 169.752C135.921 171.348 135.585 172.494 135.105 173.19C134.625 173.874 133.959 174.216 133.107 174.216ZM150.851 174H149.501V173.01C148.769 173.814 147.809 174.216 146.621 174.216C145.817 174.216 145.109 173.958 144.497 173.442C143.885 172.926 143.579 172.224 143.579 171.336C143.579 170.424 143.879 169.722 144.479 169.23C145.091 168.726 145.805 168.474 146.621 168.474C147.857 168.474 148.817 168.87 149.501 169.662V168.096C149.501 167.52 149.297 167.07 148.889 166.746C148.481 166.422 147.953 166.26 147.305 166.26C146.285 166.26 145.397 166.662 144.641 167.466L144.011 166.53C144.935 165.57 146.093 165.09 147.485 165.09C148.481 165.09 149.291 165.33 149.915 165.81C150.539 166.29 150.851 167.028 150.851 168.024V174ZM147.107 173.244C148.187 173.244 148.985 172.884 149.501 172.164V170.526C148.985 169.806 148.187 169.446 147.107 169.446C146.483 169.446 145.967 169.626 145.559 169.986C145.163 170.334 144.965 170.79 144.965 171.354C144.965 171.906 145.163 172.362 145.559 172.722C145.967 173.07 146.483 173.244 147.107 173.244ZM152.531 176.214V172.884C152.975 172.8 153.323 172.536 153.575 172.092C153.827 171.636 154.031 170.802 154.187 169.59L154.745 165.306H160.793V172.812H161.801V176.214H160.451V174H153.881V176.214H152.531ZM155.933 166.494L155.537 169.752C155.333 171.276 154.913 172.296 154.277 172.812H159.443V166.494H155.933ZM167.571 174.216C166.275 174.216 165.213 173.796 164.385 172.956C163.557 172.104 163.143 171 163.143 169.644C163.143 168.372 163.551 167.298 164.367 166.422C165.183 165.534 166.203 165.09 167.427 165.09C168.711 165.09 169.725 165.534 170.469 166.422C171.225 167.298 171.603 168.408 171.603 169.752V170.094H164.565C164.625 170.946 164.937 171.66 165.501 172.236C166.065 172.812 166.797 173.1 167.697 173.1C168.777 173.1 169.671 172.734 170.379 172.002L171.027 172.884C170.139 173.772 168.987 174.216 167.571 174.216ZM170.271 169.104C170.259 168.36 170.007 167.694 169.515 167.106C169.023 166.506 168.321 166.206 167.409 166.206C166.545 166.206 165.861 166.5 165.357 167.088C164.865 167.676 164.601 168.348 164.565 169.104H170.271Z" fill="white"/>
<rect x="75.5" y="0.5" width="112" height="112" rx="56" stroke="#6C7188"/>
<g filter="url(#filter0_d_5856_2296)">
<rect x="85" y="10" width="93" height="93" rx="46.5" fill="#89C249"/>
</g>
<path d="M133 43.3047C132.461 43.3047 132.023 43.7422 132.023 44.2812C132.023 44.8203 132.461 45.2578 133 45.2578C133.539 45.2578 133.977 44.8203 133.977 44.2812C133.977 43.7422 133.539 43.3047 133 43.3047Z" fill="white"/>
<path d="M116.789 60.8828C117.328 60.8828 117.766 60.4453 117.766 59.9062C117.766 59.3672 117.328 58.9297 116.789 58.9297C116.25 58.9297 115.812 59.3672 115.812 59.9062C115.812 60.4453 116.25 60.8828 116.789 60.8828Z" fill="white"/>
<path d="M140.812 33.5391C132.021 33.5391 124.805 39.6006 124.247 47.2357C115.874 47.6557 108 53.6933 108 61.8594C108 65.272 109.35 68.5786 111.809 71.1985C112.295 73.2035 111.704 75.3287 110.239 76.7939C109.96 77.0732 109.876 77.4931 110.028 77.8582C110.179 78.2229 110.534 78.4609 110.93 78.4609C113.715 78.4609 116.399 77.3688 118.393 75.4443C120.336 76.1065 122.871 76.5078 125.188 76.5078C133.978 76.5078 141.193 70.4478 141.753 62.8142C143.798 62.7234 145.924 62.3457 147.607 61.7724C149.601 63.6969 152.285 64.7891 155.07 64.7891C155.466 64.7891 155.821 64.551 155.972 64.1863C156.124 63.8213 156.04 63.4013 155.761 63.122C154.296 61.6568 153.705 59.5316 154.191 57.5266C156.65 54.9067 158 51.6001 158 48.1875C158 39.7025 149.52 33.5391 140.812 33.5391ZM125.188 74.5547C122.883 74.5547 120.256 74.1023 118.497 73.4023C118.12 73.252 117.689 73.3508 117.415 73.6502C116.236 74.9392 114.703 75.838 113.032 76.2511C113.953 74.4875 114.188 72.4085 113.628 70.4386C113.584 70.2834 113.502 70.1415 113.389 70.0259C111.173 67.7439 109.953 64.8436 109.953 61.8594C109.953 54.9777 116.929 49.1641 125.188 49.1641C132.986 49.1641 139.836 54.5867 139.836 61.8594C139.836 68.8597 133.265 74.5547 125.188 74.5547ZM152.611 56.354C152.498 56.47 152.416 56.6119 152.372 56.7668C151.812 58.7367 152.047 60.8157 152.968 62.5792C151.297 62.1665 149.764 61.2673 148.585 59.9783C148.311 59.6793 147.88 59.5801 147.503 59.7304C145.978 60.3369 143.803 60.7569 141.75 60.8584C141.464 57.1654 139.622 53.6944 136.473 51.1172H149.211C149.75 51.1172 150.188 50.68 150.188 50.1406C150.188 49.6012 149.75 49.1641 149.211 49.1641H133.473C131.256 48.0357 128.767 47.3776 126.205 47.2395C126.766 40.6806 133.103 35.4922 140.812 35.4922C149.071 35.4922 156.047 41.3058 156.047 48.1875C156.047 51.1717 154.827 54.0721 152.611 56.354Z" fill="white"/>
<path d="M133 58.9297H120.695C120.156 58.9297 119.719 59.3669 119.719 59.9062C119.719 60.4456 120.156 60.8828 120.695 60.8828H133C133.539 60.8828 133.977 60.4456 133.977 59.9062C133.977 59.3669 133.539 58.9297 133 58.9297Z" fill="white"/>
<path d="M133 64.7891H116.789C116.25 64.7891 115.812 65.2262 115.812 65.7656C115.812 66.305 116.25 66.7422 116.789 66.7422H133C133.539 66.7422 133.977 66.305 133.977 65.7656C133.977 65.2262 133.539 64.7891 133 64.7891Z" fill="white"/>
<path d="M149.211 43.3047H136.906C136.367 43.3047 135.93 43.7419 135.93 44.2812C135.93 44.8206 136.367 45.2578 136.906 45.2578H149.211C149.75 45.2578 150.188 44.8206 150.188 44.2812C150.188 43.7419 149.75 43.3047 149.211 43.3047Z" fill="white"/>
<defs>
<filter id="filter0_d_5856_2296" x="72" y="1" width="119" height="119" filterUnits="userSpaceOnUse" color-interpolation-filters="sRGB">
<feFlood flood-opacity="0" result="BackgroundImageFix"/>
<feColorMatrix in="SourceAlpha" type="matrix" values="0 0 0 0 0 0 0 0 0 0 0 0 0 0 0 0 0 0 127 0" result="hardAlpha"/>
<feOffset dy="4"/>
<feGaussianBlur stdDeviation="6.5"/>
<feColorMatrix type="matrix" values="0 0 0 0 0.117326 0 0 0 0 0.138241 0 0 0 0 0.258333 0 0 0 0.11 0"/>
<feBlend mode="multiply" in2="BackgroundImageFix" result="effect1_dropShadow_5856_2296"/>
<feBlend mode="normal" in="SourceGraphic" in2="effect1_dropShadow_5856_2296" result="shape"/>
</filter>
</defs>
</svg>
