<svg width="263" height="179" viewBox="0 0 263 179" fill="none" xmlns="http://www.w3.org/2000/svg">
<path d="M75.9121 152.216C74.1481 152.216 72.7141 151.628 71.6101 150.452C70.5061 149.276 69.9541 147.794 69.9541 146.006C69.9541 144.218 70.5061 142.736 71.6101 141.56C72.7141 140.384 74.1481 139.796 75.9121 139.796C77.6641 139.796 79.0921 140.384 80.1961 141.56C81.3121 142.736 81.8701 144.218 81.8701 146.006C81.8701 147.794 81.3121 149.276 80.1961 150.452C79.0921 151.628 77.6641 152.216 75.9121 152.216ZM75.9121 150.884C77.2321 150.884 78.2941 150.428 79.0981 149.516C79.9141 148.592 80.3221 147.422 80.3221 146.006C80.3221 144.578 79.9141 143.408 79.0981 142.496C78.2941 141.584 77.2321 141.128 75.9121 141.128C74.5801 141.128 73.5121 141.584 72.7081 142.496C71.9041 143.408 71.5021 144.578 71.5021 146.006C71.5021 147.422 71.9041 148.592 72.7081 149.516C73.5121 150.428 74.5801 150.884 75.9121 150.884ZM87.0838 152H85.7338V144.494H83.2138V143.306H89.6218V144.494H87.0838V152ZM96.27 152H91.392V143.306H96.18C96.936 143.306 97.53 143.51 97.962 143.918C98.406 144.326 98.628 144.866 98.628 145.538C98.628 146.03 98.49 146.456 98.214 146.816C97.95 147.164 97.62 147.398 97.224 147.518C97.668 147.626 98.04 147.884 98.34 148.292C98.652 148.7 98.808 149.15 98.808 149.642C98.808 150.35 98.58 150.92 98.124 151.352C97.68 151.784 97.062 152 96.27 152ZM96 150.812C96.432 150.812 96.774 150.692 97.026 150.452C97.278 150.212 97.404 149.888 97.404 149.48C97.404 149.108 97.278 148.79 97.026 148.526C96.774 148.262 96.432 148.13 96 148.13H92.742V150.812H96ZM95.946 146.942C96.354 146.942 96.672 146.834 96.9 146.618C97.128 146.39 97.242 146.096 97.242 145.736C97.242 145.352 97.128 145.052 96.9 144.836C96.672 144.608 96.354 144.494 95.946 144.494H92.742V146.942H95.946ZM105.283 152.216C103.987 152.216 102.925 151.796 102.097 150.956C101.269 150.104 100.855 149 100.855 147.644C100.855 146.372 101.263 145.298 102.079 144.422C102.895 143.534 103.915 143.09 105.139 143.09C106.423 143.09 107.437 143.534 108.181 144.422C108.937 145.298 109.315 146.408 109.315 147.752V148.094H102.277C102.337 148.946 102.649 149.66 103.213 150.236C103.777 150.812 104.509 151.1 105.409 151.1C106.489 151.1 107.383 150.734 108.091 150.002L108.739 150.884C107.851 151.772 106.699 152.216 105.283 152.216ZM107.983 147.104C107.971 146.36 107.719 145.694 107.227 145.106C106.735 144.506 106.033 144.206 105.121 144.206C104.257 144.206 103.573 144.5 103.069 145.088C102.577 145.676 102.313 146.348 102.277 147.104H107.983ZM114.435 152H113.085V144.494H110.565V143.306H116.973V144.494H114.435V152ZM122.578 152.216C121.294 152.216 120.25 151.784 119.446 150.92C118.642 150.044 118.24 148.952 118.24 147.644C118.24 146.336 118.642 145.25 119.446 144.386C120.25 143.522 121.294 143.09 122.578 143.09C123.922 143.09 124.984 143.594 125.764 144.602L124.864 145.43C124.312 144.674 123.574 144.296 122.65 144.296C121.738 144.296 121.006 144.608 120.454 145.232C119.914 145.856 119.644 146.66 119.644 147.644C119.644 148.628 119.914 149.438 120.454 150.074C121.006 150.698 121.738 151.01 122.65 151.01C123.562 151.01 124.3 150.632 124.864 149.876L125.764 150.704C124.984 151.712 123.922 152.216 122.578 152.216ZM130.59 152H129.24V144.494H126.72V143.306H133.128V144.494H130.59V152ZM139.776 152H134.898V143.306H139.686C140.442 143.306 141.036 143.51 141.468 143.918C141.912 144.326 142.134 144.866 142.134 145.538C142.134 146.03 141.996 146.456 141.72 146.816C141.456 147.164 141.126 147.398 140.73 147.518C141.174 147.626 141.546 147.884 141.846 148.292C142.158 148.7 142.314 149.15 142.314 149.642C142.314 150.35 142.086 150.92 141.63 151.352C141.186 151.784 140.568 152 139.776 152ZM139.506 150.812C139.938 150.812 140.28 150.692 140.532 150.452C140.784 150.212 140.91 149.888 140.91 149.48C140.91 149.108 140.784 148.79 140.532 148.526C140.28 148.262 139.938 148.13 139.506 148.13H136.248V150.812H139.506ZM139.452 146.942C139.86 146.942 140.178 146.834 140.406 146.618C140.634 146.39 140.748 146.096 140.748 145.736C140.748 145.352 140.634 145.052 140.406 144.836C140.178 144.608 139.86 144.494 139.452 144.494H136.248V146.942H139.452ZM148.789 152.216C147.493 152.216 146.431 151.796 145.603 150.956C144.775 150.104 144.361 149 144.361 147.644C144.361 146.372 144.769 145.298 145.585 144.422C146.401 143.534 147.421 143.09 148.645 143.09C149.929 143.09 150.943 143.534 151.687 144.422C152.443 145.298 152.821 146.408 152.821 147.752V148.094H145.783C145.843 148.946 146.155 149.66 146.719 150.236C147.283 150.812 148.015 151.1 148.915 151.1C149.995 151.1 150.889 150.734 151.597 150.002L152.245 150.884C151.357 151.772 150.205 152.216 148.789 152.216ZM151.489 147.104C151.477 146.36 151.225 145.694 150.733 145.106C150.241 144.506 149.539 144.206 148.627 144.206C147.763 144.206 147.079 144.5 146.575 145.088C146.083 145.676 145.819 146.348 145.783 147.104H151.489ZM156.357 152H155.007V143.306H156.357V146.924H160.893V143.306H162.243V152H160.893V148.112H156.357V152ZM166.289 152H164.939V143.306H166.289V146.924H170.825V143.306H172.175V152H170.825V148.112H166.289V152ZM181.783 150.902C181.003 151.778 179.965 152.216 178.669 152.216C177.373 152.216 176.329 151.778 175.537 150.902C174.757 150.026 174.367 148.94 174.367 147.644C174.367 146.348 174.757 145.268 175.537 144.404C176.329 143.528 177.373 143.09 178.669 143.09C179.965 143.09 181.003 143.528 181.783 144.404C182.575 145.268 182.971 146.348 182.971 147.644C182.971 148.94 182.575 150.026 181.783 150.902ZM176.545 150.038C177.073 150.686 177.781 151.01 178.669 151.01C179.557 151.01 180.259 150.686 180.775 150.038C181.291 149.378 181.549 148.58 181.549 147.644C181.549 146.708 181.291 145.916 180.775 145.268C180.259 144.62 179.557 144.296 178.669 144.296C177.781 144.296 177.073 144.626 176.545 145.286C176.029 145.934 175.771 146.72 175.771 147.644C175.771 148.58 176.029 149.378 176.545 150.038ZM189.095 152.216C187.799 152.216 186.737 151.796 185.909 150.956C185.081 150.104 184.667 149 184.667 147.644C184.667 146.372 185.075 145.298 185.891 144.422C186.707 143.534 187.727 143.09 188.951 143.09C190.235 143.09 191.249 143.534 191.993 144.422C192.749 145.298 193.127 146.408 193.127 147.752V148.094H186.089C186.149 148.946 186.461 149.66 187.025 150.236C187.589 150.812 188.321 151.1 189.221 151.1C190.301 151.1 191.195 150.734 191.903 150.002L192.551 150.884C191.663 151.772 190.511 152.216 189.095 152.216ZM191.795 147.104C191.783 146.36 191.531 145.694 191.039 145.106C190.547 144.506 189.845 144.206 188.933 144.206C188.069 144.206 187.385 144.5 186.881 145.088C186.389 145.676 186.125 146.348 186.089 147.104H191.795ZM75.5646 174H73.9986L71.3886 170.436L68.7786 174H67.2306L70.5606 169.536L67.4106 165.306H68.9766L71.3886 168.618L73.8006 165.306H75.3666L72.2166 169.536L75.5646 174ZM81.4026 174.216C80.1786 174.216 79.2006 173.706 78.4686 172.686V177.312H77.1186V165.306H78.4686V166.602C78.7926 166.146 79.2126 165.78 79.7286 165.504C80.2446 165.228 80.8026 165.09 81.4026 165.09C82.5546 165.09 83.4846 165.504 84.1926 166.332C84.9126 167.148 85.2726 168.252 85.2726 169.644C85.2726 171.036 84.9126 172.146 84.1926 172.974C83.4846 173.802 82.5546 174.216 81.4026 174.216ZM81.0606 173.01C81.9126 173.01 82.5906 172.698 83.0946 172.074C83.5986 171.438 83.8506 170.628 83.8506 169.644C83.8506 168.66 83.5986 167.856 83.0946 167.232C82.5906 166.608 81.9126 166.296 81.0606 166.296C80.5446 166.296 80.0406 166.434 79.5486 166.71C79.0686 166.974 78.7086 167.298 78.4686 167.682V171.606C78.7086 172.002 79.0686 172.338 79.5486 172.614C80.0406 172.878 80.5446 173.01 81.0606 173.01ZM94.2053 174H92.8553V173.01C92.1233 173.814 91.1633 174.216 89.9753 174.216C89.1713 174.216 88.4633 173.958 87.8513 173.442C87.2393 172.926 86.9333 172.224 86.9333 171.336C86.9333 170.424 87.2333 169.722 87.8333 169.23C88.4453 168.726 89.1593 168.474 89.9753 168.474C91.2113 168.474 92.1713 168.87 92.8553 169.662V168.096C92.8553 167.52 92.6513 167.07 92.2433 166.746C91.8353 166.422 91.3073 166.26 90.6593 166.26C89.6393 166.26 88.7513 166.662 87.9953 167.466L87.3653 166.53C88.2893 165.57 89.4473 165.09 90.8393 165.09C91.8353 165.09 92.6453 165.33 93.2693 165.81C93.8933 166.29 94.2053 167.028 94.2053 168.024V174ZM90.4613 173.244C91.5413 173.244 92.3393 172.884 92.8553 172.164V170.526C92.3393 169.806 91.5413 169.446 90.4613 169.446C89.8373 169.446 89.3213 169.626 88.9133 169.986C88.5173 170.334 88.3193 170.79 88.3193 171.354C88.3193 171.906 88.5173 172.362 88.9133 172.722C89.3213 173.07 89.8373 173.244 90.4613 173.244ZM98.2615 174H96.9115V165.306H98.2615V168.924H102.798V165.306H104.148V174H102.798V170.112H98.2615V174ZM110.767 174.216C109.471 174.216 108.409 173.796 107.581 172.956C106.753 172.104 106.339 171 106.339 169.644C106.339 168.372 106.747 167.298 107.563 166.422C108.379 165.534 109.399 165.09 110.623 165.09C111.907 165.09 112.921 165.534 113.665 166.422C114.421 167.298 114.799 168.408 114.799 169.752V170.094H107.761C107.821 170.946 108.133 171.66 108.697 172.236C109.261 172.812 109.993 173.1 110.893 173.1C111.973 173.1 112.867 172.734 113.575 172.002L114.223 172.884C113.335 173.772 112.183 174.216 110.767 174.216ZM113.467 169.104C113.455 168.36 113.203 167.694 112.711 167.106C112.219 166.506 111.517 166.206 110.605 166.206C109.741 166.206 109.057 166.5 108.553 167.088C108.061 167.676 107.797 168.348 107.761 169.104H113.467ZM118.336 174H116.986V165.306H118.336V168.924H122.872V165.306H124.222V174H122.872V170.112H118.336V174ZM128.213 174H126.917V165.306H128.267V171.948L132.821 165.306H134.153V174H132.803V167.232L128.213 174ZM140.773 174.216C139.477 174.216 138.415 173.796 137.587 172.956C136.759 172.104 136.345 171 136.345 169.644C136.345 168.372 136.753 167.298 137.569 166.422C138.385 165.534 139.405 165.09 140.629 165.09C141.913 165.09 142.927 165.534 143.671 166.422C144.427 167.298 144.805 168.408 144.805 169.752V170.094H137.767C137.827 170.946 138.139 171.66 138.703 172.236C139.267 172.812 139.999 173.1 140.899 173.1C141.979 173.1 142.873 172.734 143.581 172.002L144.229 172.884C143.341 173.772 142.189 174.216 140.773 174.216ZM143.473 169.104C143.461 168.36 143.209 167.694 142.717 167.106C142.225 166.506 141.523 166.206 140.611 166.206C139.747 166.206 139.063 166.5 138.559 167.088C138.067 167.676 137.803 168.348 137.767 169.104H143.473ZM157.716 165.306V166.494H152.982V174H151.632V165.306H157.716ZM163.756 174.216C162.532 174.216 161.554 173.706 160.822 172.686V177.312H159.472V165.306H160.822V166.602C161.146 166.146 161.566 165.78 162.082 165.504C162.598 165.228 163.156 165.09 163.756 165.09C164.908 165.09 165.838 165.504 166.546 166.332C167.266 167.148 167.626 168.252 167.626 169.644C167.626 171.036 167.266 172.146 166.546 172.974C165.838 173.802 164.908 174.216 163.756 174.216ZM163.414 173.01C164.266 173.01 164.944 172.698 165.448 172.074C165.952 171.438 166.204 170.628 166.204 169.644C166.204 168.66 165.952 167.856 165.448 167.232C164.944 166.608 164.266 166.296 163.414 166.296C162.898 166.296 162.394 166.434 161.902 166.71C161.422 166.974 161.062 167.298 160.822 167.682V171.606C161.062 172.002 161.422 172.338 161.902 172.614C162.394 172.878 162.898 173.01 163.414 173.01ZM169.287 177.402L169.503 176.178C169.719 176.274 169.965 176.322 170.241 176.322C170.553 176.322 170.811 176.256 171.015 176.124C171.219 175.992 171.393 175.752 171.537 175.404L172.113 174.09L168.477 165.306H169.935L172.833 172.434L175.713 165.306H177.189L172.833 175.764C172.353 176.916 171.501 177.504 170.277 177.528C169.917 177.528 169.587 177.486 169.287 177.402ZM181.675 174.216C180.007 174.216 178.699 173.742 177.751 172.794L178.417 171.93C179.233 172.71 180.319 173.1 181.675 173.1C182.455 173.1 183.073 172.962 183.529 172.686C183.997 172.41 184.231 172.044 184.231 171.588C184.231 170.628 183.319 170.148 181.495 170.148H179.551V169.05H181.495C182.251 169.05 182.869 168.93 183.349 168.69C183.829 168.438 184.069 168.072 184.069 167.592C184.069 167.184 183.829 166.854 183.349 166.602C182.869 166.338 182.263 166.206 181.531 166.206C180.319 166.206 179.347 166.578 178.615 167.322L177.913 166.494C178.813 165.57 180.001 165.108 181.477 165.108C182.665 165.096 183.625 165.3 184.357 165.72C185.101 166.128 185.473 166.698 185.473 167.43C185.473 168.03 185.227 168.516 184.735 168.888C184.255 169.26 183.721 169.482 183.133 169.554C183.745 169.602 184.315 169.806 184.843 170.166C185.383 170.526 185.653 171.03 185.653 171.678C185.653 172.422 185.293 173.034 184.573 173.514C183.865 173.982 182.899 174.216 181.675 174.216ZM194.629 174H193.279V173.01C192.547 173.814 191.587 174.216 190.399 174.216C189.595 174.216 188.887 173.958 188.275 173.442C187.663 172.926 187.357 172.224 187.357 171.336C187.357 170.424 187.657 169.722 188.257 169.23C188.869 168.726 189.583 168.474 190.399 168.474C191.635 168.474 192.595 168.87 193.279 169.662V168.096C193.279 167.52 193.075 167.07 192.667 166.746C192.259 166.422 191.731 166.26 191.083 166.26C190.063 166.26 189.175 166.662 188.419 167.466L187.789 166.53C188.713 165.57 189.871 165.09 191.263 165.09C192.259 165.09 193.069 165.33 193.693 165.81C194.317 166.29 194.629 167.028 194.629 168.024V174ZM190.885 173.244C191.965 173.244 192.763 172.884 193.279 172.164V170.526C192.763 169.806 191.965 169.446 190.885 169.446C190.261 169.446 189.745 169.626 189.337 169.986C188.941 170.334 188.743 170.79 188.743 171.354C188.743 171.906 188.941 172.362 189.337 172.722C189.745 173.07 190.261 173.244 190.885 173.244Z" fill="white"/>
<rect x="75.5" y="0.5" width="112" height="112" rx="56" stroke="#6C7188"/>
<g filter="url(#filter0_d_5856_2305)">
<rect x="85" y="10" width="93" height="93" rx="46.5" fill="#89C249"/>
</g>
<g clip-path="url(#clip0_5856_2305)">
<path d="M156 57.9061C156 56.7291 155.532 55.6324 154.725 54.8236C155.64 53.8229 156.106 52.4814 155.978 51.0852C155.749 48.5961 153.507 46.6456 150.871 46.6456H138.774C139.374 44.8263 140.333 41.4913 140.333 38.8123C140.333 34.5647 136.724 30.979 134.458 30.979C132.426 30.979 130.97 32.1246 130.91 32.1716C130.677 32.3577 130.542 32.6397 130.542 32.9373V39.578L124.9 51.7961L124.667 51.9155V51.5414C124.667 51.0009 124.228 50.5622 123.687 50.5622H113.896C111.195 50.5623 109 52.7576 109 55.4581V71.1248C109 73.8254 111.195 76.0206 113.896 76.0206H119.771C121.888 76.0206 123.697 74.6694 124.379 72.7835C126.008 73.6217 128.201 74.0623 129.562 74.0623H147.538C149.671 74.0623 151.537 72.6249 151.976 70.6431C152.201 69.6208 152.07 68.5927 151.623 67.6997C153.068 66.9731 154.042 65.4789 154.042 63.7811C154.042 63.0878 153.883 62.4239 153.583 61.8247C155.029 61.0962 156 59.6039 156 57.9061ZM151.87 60.3226C151.492 60.3677 151.173 60.6242 151.051 60.9865C150.932 61.3488 151.032 61.7463 151.31 62.0087C151.807 62.4768 152.083 63.1074 152.083 63.7811C152.083 65.0167 151.149 66.0547 149.914 66.1976C149.536 66.2427 149.216 66.4992 149.095 66.8615C148.976 67.2238 149.075 67.6213 149.354 67.8837C149.998 68.4908 150.256 69.3427 150.062 70.2201C149.822 71.3128 148.76 72.104 147.538 72.104H129.562C127.972 72.104 125.305 71.3579 124.381 70.4316C124.101 70.1535 123.678 70.0713 123.313 70.2201C122.947 70.3709 122.708 70.7293 122.708 71.1248C122.708 72.7444 121.39 74.0623 119.771 74.0623H113.896C112.276 74.0623 110.958 72.7444 110.958 71.1248V55.4581C110.958 53.8385 112.276 52.5206 113.896 52.5206H122.708V53.4998C122.708 53.8386 122.885 54.1539 123.174 54.3341C123.46 54.5064 123.821 54.524 124.126 54.3752L126.084 53.396C126.282 53.298 126.441 53.1335 126.535 52.9319L132.41 40.2027C132.469 40.0734 132.5 39.9324 132.5 39.7914V33.468C132.907 33.2428 133.614 32.9373 134.458 32.9373C135.531 32.9373 138.375 35.6046 138.375 38.8123C138.375 42.259 136.499 47.2272 136.481 47.2763C136.368 47.5759 136.407 47.9147 136.589 48.181C136.773 48.4454 137.075 48.604 137.396 48.604H150.871C152.504 48.604 153.891 49.7731 154.028 51.2654C154.132 52.3816 153.595 53.4431 152.634 54.0365C152.334 54.2205 152.156 54.5535 152.169 54.9079C152.183 55.2623 152.387 55.5796 152.7 55.7421C153.529 56.1632 154.042 56.9935 154.042 57.9061C154.042 59.1417 153.108 60.1797 151.87 60.3226Z" fill="white"/>
<path d="M123.69 52.521C123.15 52.521 122.711 52.9597 122.711 53.5002V71.1252C122.711 71.6657 123.15 72.1044 123.69 72.1044C124.231 72.1044 124.669 71.6657 124.669 71.1252V53.5002C124.669 52.9597 124.231 52.521 123.69 52.521Z" fill="white"/>
</g>
<defs>
<filter id="filter0_d_5856_2305" x="72" y="1" width="119" height="119" filterUnits="userSpaceOnUse" color-interpolation-filters="sRGB">
<feFlood flood-opacity="0" result="BackgroundImageFix"/>
<feColorMatrix in="SourceAlpha" type="matrix" values="0 0 0 0 0 0 0 0 0 0 0 0 0 0 0 0 0 0 127 0" result="hardAlpha"/>
<feOffset dy="4"/>
<feGaussianBlur stdDeviation="6.5"/>
<feColorMatrix type="matrix" values="0 0 0 0 0.117326 0 0 0 0 0.138241 0 0 0 0 0.258333 0 0 0 0.11 0"/>
<feBlend mode="multiply" in2="BackgroundImageFix" result="effect1_dropShadow_5856_2305"/>
<feBlend mode="normal" in="SourceGraphic" in2="effect1_dropShadow_5856_2305" result="shape"/>
</filter>
<clipPath id="clip0_5856_2305">
<rect width="47" height="47" fill="white" transform="translate(109 30)"/>
</clipPath>
</defs>
</svg>
