<svg width="263" height="179" viewBox="0 0 263 179" fill="none" xmlns="http://www.w3.org/2000/svg">
<path d="M101.234 152H99.7403V141.326H92.7203V152H91.2263V139.994H101.234V152ZM110.899 150.902C110.119 151.778 109.081 152.216 107.785 152.216C106.489 152.216 105.445 151.778 104.653 150.902C103.873 150.026 103.483 148.94 103.483 147.644C103.483 146.348 103.873 145.268 104.653 144.404C105.445 143.528 106.489 143.09 107.785 143.09C109.081 143.09 110.119 143.528 110.899 144.404C111.691 145.268 112.087 146.348 112.087 147.644C112.087 148.94 111.691 150.026 110.899 150.902ZM105.661 150.038C106.189 150.686 106.897 151.01 107.785 151.01C108.673 151.01 109.375 150.686 109.891 150.038C110.407 149.378 110.665 148.58 110.665 147.644C110.665 146.708 110.407 145.916 109.891 145.268C109.375 144.62 108.673 144.296 107.785 144.296C106.897 144.296 106.189 144.626 105.661 145.286C105.145 145.934 104.887 146.72 104.887 147.644C104.887 148.58 105.145 149.378 105.661 150.038ZM123.162 152H121.812V145.178L118.986 152H118.482L115.638 145.178V152H114.288V143.306H116.07L118.734 149.75L121.362 143.306H123.162V152ZM132.766 150.902C131.986 151.778 130.948 152.216 129.652 152.216C128.356 152.216 127.312 151.778 126.52 150.902C125.74 150.026 125.35 148.94 125.35 147.644C125.35 146.348 125.74 145.268 126.52 144.404C127.312 143.528 128.356 143.09 129.652 143.09C130.948 143.09 131.986 143.528 132.766 144.404C133.558 145.268 133.954 146.348 133.954 147.644C133.954 148.94 133.558 150.026 132.766 150.902ZM127.528 150.038C128.056 150.686 128.764 151.01 129.652 151.01C130.54 151.01 131.242 150.686 131.758 150.038C132.274 149.378 132.532 148.58 132.532 147.644C132.532 146.708 132.274 145.916 131.758 145.268C131.242 144.62 130.54 144.296 129.652 144.296C128.764 144.296 128.056 144.626 127.528 145.286C127.012 145.934 126.754 146.72 126.754 147.644C126.754 148.58 127.012 149.378 127.528 150.038ZM146.199 143.306H147.549V150.812H148.665V154.214H147.315V152H136.155V143.306H137.505V150.812H141.177V143.306H142.527V150.812H146.199V143.306ZM150.516 143.306H151.866V146.672H155.124C155.988 146.672 156.66 146.93 157.14 147.446C157.62 147.95 157.86 148.58 157.86 149.336C157.86 150.092 157.614 150.728 157.122 151.244C156.642 151.748 155.976 152 155.124 152H150.516V143.306ZM154.98 147.86H151.866V150.812H154.98C155.46 150.812 155.826 150.68 156.078 150.416C156.342 150.14 156.474 149.78 156.474 149.336C156.474 148.892 156.342 148.538 156.078 148.274C155.826 147.998 155.46 147.86 154.98 147.86ZM169.439 152H164.561V143.306H169.349C170.105 143.306 170.699 143.51 171.131 143.918C171.575 144.326 171.797 144.866 171.797 145.538C171.797 146.03 171.659 146.456 171.383 146.816C171.119 147.164 170.789 147.398 170.393 147.518C170.837 147.626 171.209 147.884 171.509 148.292C171.821 148.7 171.977 149.15 171.977 149.642C171.977 150.35 171.749 150.92 171.293 151.352C170.849 151.784 170.231 152 169.439 152ZM169.169 150.812C169.601 150.812 169.943 150.692 170.195 150.452C170.447 150.212 170.573 149.888 170.573 149.48C170.573 149.108 170.447 148.79 170.195 148.526C169.943 148.262 169.601 148.13 169.169 148.13H165.911V150.812H169.169ZM169.115 146.942C169.523 146.942 169.841 146.834 170.069 146.618C170.297 146.39 170.411 146.096 170.411 145.736C170.411 145.352 170.297 145.052 170.069 144.836C169.841 144.608 169.523 144.494 169.115 144.494H165.911V146.942H169.115ZM80.5237 172.902C79.7437 173.778 78.7057 174.216 77.4097 174.216C76.1137 174.216 75.0697 173.778 74.2777 172.902C73.4977 172.026 73.1077 170.94 73.1077 169.644C73.1077 168.348 73.4977 167.268 74.2777 166.404C75.0697 165.528 76.1137 165.09 77.4097 165.09C78.7057 165.09 79.7437 165.528 80.5237 166.404C81.3157 167.268 81.7117 168.348 81.7117 169.644C81.7117 170.94 81.3157 172.026 80.5237 172.902ZM75.2857 172.038C75.8137 172.686 76.5217 173.01 77.4097 173.01C78.2977 173.01 78.9997 172.686 79.5157 172.038C80.0317 171.378 80.2897 170.58 80.2897 169.644C80.2897 168.708 80.0317 167.916 79.5157 167.268C78.9997 166.62 78.2977 166.296 77.4097 166.296C76.5217 166.296 75.8137 166.626 75.2857 167.286C74.7697 167.934 74.5117 168.72 74.5117 169.644C74.5117 170.58 74.7697 171.378 75.2857 172.038ZM91.1485 174H89.7985V166.494H85.2625V174H83.9125V165.306H91.1485V174ZM92.8181 174.216V173.1C93.2261 173.1 93.5621 172.83 93.8261 172.29C94.0901 171.75 94.3061 170.85 94.4741 169.59L95.0321 165.306H101.08V174H99.7301V166.494H96.2201L95.8241 169.752C95.6321 171.348 95.2961 172.494 94.8161 173.19C94.3361 173.874 93.6701 174.216 92.8181 174.216ZM110.562 174H109.212V173.01C108.48 173.814 107.52 174.216 106.332 174.216C105.528 174.216 104.82 173.958 104.208 173.442C103.596 172.926 103.29 172.224 103.29 171.336C103.29 170.424 103.59 169.722 104.19 169.23C104.802 168.726 105.516 168.474 106.332 168.474C107.568 168.474 108.528 168.87 109.212 169.662V168.096C109.212 167.52 109.008 167.07 108.6 166.746C108.192 166.422 107.664 166.26 107.016 166.26C105.996 166.26 105.108 166.662 104.352 167.466L103.722 166.53C104.646 165.57 105.804 165.09 107.196 165.09C108.192 165.09 109.002 165.33 109.626 165.81C110.25 166.29 110.562 167.028 110.562 168.024V174ZM106.818 173.244C107.898 173.244 108.696 172.884 109.212 172.164V170.526C108.696 169.806 107.898 169.446 106.818 169.446C106.194 169.446 105.678 169.626 105.27 169.986C104.874 170.334 104.676 170.79 104.676 171.354C104.676 171.906 104.874 172.362 105.27 172.722C105.678 173.07 106.194 173.244 106.818 173.244ZM116.202 174H114.852V166.494H112.332V165.306H118.74V166.494H116.202V174ZM124.434 174.216C123.138 174.216 122.076 173.796 121.248 172.956C120.42 172.104 120.006 171 120.006 169.644C120.006 168.372 120.414 167.298 121.23 166.422C122.046 165.534 123.066 165.09 124.29 165.09C125.574 165.09 126.588 165.534 127.332 166.422C128.088 167.298 128.466 168.408 128.466 169.752V170.094H121.428C121.488 170.946 121.8 171.66 122.364 172.236C122.928 172.812 123.66 173.1 124.56 173.1C125.64 173.1 126.534 172.734 127.242 172.002L127.89 172.884C127.002 173.772 125.85 174.216 124.434 174.216ZM127.134 169.104C127.122 168.36 126.87 167.694 126.378 167.106C125.886 166.506 125.184 166.206 124.272 166.206C123.408 166.206 122.724 166.5 122.22 167.088C121.728 167.676 121.464 168.348 121.428 169.104H127.134ZM138.227 174H136.877V166.494H134.357V165.306H140.765V166.494H138.227V174ZM149.448 172.902C148.668 173.778 147.63 174.216 146.334 174.216C145.038 174.216 143.994 173.778 143.202 172.902C142.422 172.026 142.032 170.94 142.032 169.644C142.032 168.348 142.422 167.268 143.202 166.404C143.994 165.528 145.038 165.09 146.334 165.09C147.63 165.09 148.668 165.528 149.448 166.404C150.24 167.268 150.636 168.348 150.636 169.644C150.636 170.94 150.24 172.026 149.448 172.902ZM144.21 172.038C144.738 172.686 145.446 173.01 146.334 173.01C147.222 173.01 147.924 172.686 148.44 172.038C148.956 171.378 149.214 170.58 149.214 169.644C149.214 168.708 148.956 167.916 148.44 167.268C147.924 166.62 147.222 166.296 146.334 166.296C145.446 166.296 144.738 166.626 144.21 167.286C143.694 167.934 143.436 168.72 143.436 169.644C143.436 170.58 143.694 171.378 144.21 172.038ZM157.714 174H152.836V165.306H157.624C158.38 165.306 158.974 165.51 159.406 165.918C159.85 166.326 160.072 166.866 160.072 167.538C160.072 168.03 159.934 168.456 159.658 168.816C159.394 169.164 159.064 169.398 158.668 169.518C159.112 169.626 159.484 169.884 159.784 170.292C160.096 170.7 160.252 171.15 160.252 171.642C160.252 172.35 160.024 172.92 159.568 173.352C159.124 173.784 158.506 174 157.714 174ZM157.444 172.812C157.876 172.812 158.218 172.692 158.47 172.452C158.722 172.212 158.848 171.888 158.848 171.48C158.848 171.108 158.722 170.79 158.47 170.526C158.218 170.262 157.876 170.13 157.444 170.13H154.186V172.812H157.444ZM157.39 168.942C157.798 168.942 158.116 168.834 158.344 168.618C158.572 168.39 158.686 168.096 158.686 167.736C158.686 167.352 158.572 167.052 158.344 166.836C158.116 166.608 157.798 166.494 157.39 166.494H154.186V168.942H157.39ZM169.589 174H168.239V173.01C167.507 173.814 166.547 174.216 165.359 174.216C164.555 174.216 163.847 173.958 163.235 173.442C162.623 172.926 162.317 172.224 162.317 171.336C162.317 170.424 162.617 169.722 163.217 169.23C163.829 168.726 164.543 168.474 165.359 168.474C166.595 168.474 167.555 168.87 168.239 169.662V168.096C168.239 167.52 168.035 167.07 167.627 166.746C167.219 166.422 166.691 166.26 166.043 166.26C165.023 166.26 164.135 166.662 163.379 167.466L162.749 166.53C163.673 165.57 164.831 165.09 166.223 165.09C167.219 165.09 168.029 165.33 168.653 165.81C169.277 166.29 169.589 167.028 169.589 168.024V174ZM165.845 173.244C166.925 173.244 167.723 172.884 168.239 172.164V170.526C167.723 169.806 166.925 169.446 165.845 169.446C165.221 169.446 164.705 169.626 164.297 169.986C163.901 170.334 163.703 170.79 163.703 171.354C163.703 171.906 163.901 172.362 164.297 172.722C164.705 173.07 165.221 173.244 165.845 173.244ZM176.579 174.216C175.355 174.216 174.377 173.706 173.645 172.686V177.312H172.295V165.306H173.645V166.602C173.969 166.146 174.389 165.78 174.905 165.504C175.421 165.228 175.979 165.09 176.579 165.09C177.731 165.09 178.661 165.504 179.369 166.332C180.089 167.148 180.449 168.252 180.449 169.644C180.449 171.036 180.089 172.146 179.369 172.974C178.661 173.802 177.731 174.216 176.579 174.216ZM176.237 173.01C177.089 173.01 177.767 172.698 178.271 172.074C178.775 171.438 179.027 170.628 179.027 169.644C179.027 168.66 178.775 167.856 178.271 167.232C177.767 166.608 177.089 166.296 176.237 166.296C175.721 166.296 175.217 166.434 174.725 166.71C174.245 166.974 173.885 167.298 173.645 167.682V171.606C173.885 172.002 174.245 172.338 174.725 172.614C175.217 172.878 175.721 173.01 176.237 173.01ZM189.382 174H188.032V173.01C187.3 173.814 186.34 174.216 185.152 174.216C184.348 174.216 183.64 173.958 183.028 173.442C182.416 172.926 182.11 172.224 182.11 171.336C182.11 170.424 182.41 169.722 183.01 169.23C183.622 168.726 184.336 168.474 185.152 168.474C186.388 168.474 187.348 168.87 188.032 169.662V168.096C188.032 167.52 187.828 167.07 187.42 166.746C187.012 166.422 186.484 166.26 185.836 166.26C184.816 166.26 183.928 166.662 183.172 167.466L182.542 166.53C183.466 165.57 184.624 165.09 186.016 165.09C187.012 165.09 187.822 165.33 188.446 165.81C189.07 166.29 189.382 167.028 189.382 168.024V174ZM185.638 173.244C186.718 173.244 187.516 172.884 188.032 172.164V170.526C187.516 169.806 186.718 169.446 185.638 169.446C185.014 169.446 184.498 169.626 184.09 169.986C183.694 170.334 183.496 170.79 183.496 171.354C183.496 171.906 183.694 172.362 184.09 172.722C184.498 173.07 185.014 173.244 185.638 173.244Z" fill="white"/>
<rect x="75.5" y="0.5" width="112" height="112" rx="56" stroke="#6C7188"/>
<g filter="url(#filter0_d_5856_2314)">
<rect x="85" y="10" width="93" height="93" rx="46.5" fill="#89C249"/>
</g>
<g clip-path="url(#clip0_5856_2314)">
<path d="M158.111 40.456C157.464 39.6902 156.556 39.2224 155.557 39.1389L120.346 36.1989C119.346 36.1154 118.374 36.4262 117.608 37.074C116.846 37.7192 116.378 38.6218 116.292 39.6166L115.584 46.2627H112.755C110.685 46.2627 109 47.9474 109 50.0181V72.0592C109 74.1299 110.685 75.8146 112.755 75.8146H148.089C150.159 75.8146 151.844 74.1299 151.844 72.0592V68.4837L153.098 68.5884C153.204 68.5972 153.309 68.6016 153.413 68.6016C155.343 68.6016 156.989 67.1163 157.153 65.1585L158.987 43.1939C159.07 42.1942 158.759 41.2219 158.111 40.456ZM112.755 48.2158H148.089C149.082 48.2158 149.891 49.0243 149.891 50.0181V52.0265H110.953V50.0181C110.953 49.0243 111.762 48.2158 112.755 48.2158ZM110.953 53.9796H149.891V58.0312H110.953V53.9796ZM148.089 73.8614H112.755C111.762 73.8614 110.953 73.0529 110.953 72.0592V59.9843H149.891V72.0592C149.891 73.0529 149.082 73.8614 148.089 73.8614ZM157.04 43.0313L155.206 64.9959C155.124 65.9863 154.25 66.725 153.26 66.642L151.844 66.5238V50.0181C151.844 47.9474 150.159 46.2627 148.089 46.2627H117.548L118.236 39.8135C118.236 39.8061 118.237 39.7988 118.238 39.7912C118.32 38.8009 119.193 38.0622 120.184 38.1453L155.394 41.0853C155.874 41.1253 156.309 41.3498 156.62 41.7174C156.931 42.085 157.08 42.5515 157.04 43.0313Z" fill="white"/>
<path d="M145.805 62.8877H136.406C135.867 62.8877 135.43 63.3249 135.43 63.8643V69.996C135.43 70.5354 135.867 70.9726 136.406 70.9726H145.805C146.344 70.9726 146.781 70.5354 146.781 69.996V63.8643C146.781 63.3249 146.344 62.8877 145.805 62.8877ZM144.828 69.0194H137.383V64.8408H144.828V69.0194Z" fill="white"/>
</g>
<defs>
<filter id="filter0_d_5856_2314" x="72" y="1" width="119" height="119" filterUnits="userSpaceOnUse" color-interpolation-filters="sRGB">
<feFlood flood-opacity="0" result="BackgroundImageFix"/>
<feColorMatrix in="SourceAlpha" type="matrix" values="0 0 0 0 0 0 0 0 0 0 0 0 0 0 0 0 0 0 127 0" result="hardAlpha"/>
<feOffset dy="4"/>
<feGaussianBlur stdDeviation="6.5"/>
<feColorMatrix type="matrix" values="0 0 0 0 0.117326 0 0 0 0 0.138241 0 0 0 0 0.258333 0 0 0 0.11 0"/>
<feBlend mode="multiply" in2="BackgroundImageFix" result="effect1_dropShadow_5856_2314"/>
<feBlend mode="normal" in="SourceGraphic" in2="effect1_dropShadow_5856_2314" result="shape"/>
</filter>
<clipPath id="clip0_5856_2314">
<rect width="50" height="50" fill="white" transform="translate(109 31)"/>
</clipPath>
</defs>
</svg>
