<svg width="263" height="201" viewBox="0 0 263 201" fill="none" xmlns="http://www.w3.org/2000/svg">
<path d="M30.0914 152.216C29.5994 152.216 29.1434 152.126 28.7234 151.946C28.3034 151.766 27.9794 151.538 27.7514 151.262L28.3814 150.074C28.8974 150.614 29.4434 150.884 30.0194 150.884C30.4754 150.884 30.8354 150.764 31.0994 150.524C31.3754 150.284 31.6874 149.834 32.0354 149.174L32.2514 148.76L27.6434 139.994H29.3534L33.1154 147.428L36.8774 139.994H38.5874L33.3494 149.876C32.9294 150.668 32.4794 151.256 31.9994 151.64C31.5194 152.024 30.8834 152.216 30.0914 152.216ZM46.5792 152H45.2292V144.494H40.6932V152H39.3432V143.306H46.5792V152ZM56.0608 152H54.7108V151.01C53.9788 151.814 53.0188 152.216 51.8308 152.216C51.0268 152.216 50.3188 151.958 49.7068 151.442C49.0948 150.926 48.7888 150.224 48.7888 149.336C48.7888 148.424 49.0888 147.722 49.6888 147.23C50.3008 146.726 51.0148 146.474 51.8308 146.474C53.0668 146.474 54.0268 146.87 54.7108 147.662V146.096C54.7108 145.52 54.5068 145.07 54.0988 144.746C53.6908 144.422 53.1628 144.26 52.5148 144.26C51.4948 144.26 50.6068 144.662 49.8508 145.466L49.2208 144.53C50.1448 143.57 51.3028 143.09 52.6948 143.09C53.6908 143.09 54.5008 143.33 55.1248 143.81C55.7488 144.29 56.0608 145.028 56.0608 146.024V152ZM52.3168 151.244C53.3968 151.244 54.1948 150.884 54.7108 150.164V148.526C54.1948 147.806 53.3968 147.446 52.3168 147.446C51.6928 147.446 51.1768 147.626 50.7688 147.986C50.3728 148.334 50.1748 148.79 50.1748 149.354C50.1748 149.906 50.3728 150.362 50.7688 150.722C51.1768 151.07 51.6928 151.244 52.3168 151.244ZM66.417 152H64.689L61.557 148.094L60.117 149.516V152H58.767V143.306H60.117V147.932L64.689 143.306H66.399L62.547 147.248L66.417 152ZM74.8724 150.902C74.0924 151.778 73.0544 152.216 71.7584 152.216C70.4624 152.216 69.4184 151.778 68.6264 150.902C67.8464 150.026 67.4564 148.94 67.4564 147.644C67.4564 146.348 67.8464 145.268 68.6264 144.404C69.4184 143.528 70.4624 143.09 71.7584 143.09C73.0544 143.09 74.0924 143.528 74.8724 144.404C75.6644 145.268 76.0604 146.348 76.0604 147.644C76.0604 148.94 75.6644 150.026 74.8724 150.902ZM69.6344 150.038C70.1624 150.686 70.8704 151.01 71.7584 151.01C72.6464 151.01 73.3484 150.686 73.8644 150.038C74.3804 149.378 74.6384 148.58 74.6384 147.644C74.6384 146.708 74.3804 145.916 73.8644 145.268C73.3484 144.62 72.6464 144.296 71.7584 144.296C70.8704 144.296 70.1624 144.626 69.6344 145.286C69.1184 145.934 68.8604 146.72 68.8604 147.644C68.8604 148.58 69.1184 149.378 69.6344 150.038ZM83.1391 152H78.2611V143.306H83.0491C83.8051 143.306 84.3991 143.51 84.8311 143.918C85.2751 144.326 85.4971 144.866 85.4971 145.538C85.4971 146.03 85.3591 146.456 85.0831 146.816C84.8191 147.164 84.4891 147.398 84.0931 147.518C84.5371 147.626 84.9091 147.884 85.2091 148.292C85.5211 148.7 85.6771 149.15 85.6771 149.642C85.6771 150.35 85.4491 150.92 84.9931 151.352C84.5491 151.784 83.9311 152 83.1391 152ZM82.8691 150.812C83.3011 150.812 83.6431 150.692 83.8951 150.452C84.1471 150.212 84.2731 149.888 84.2731 149.48C84.2731 149.108 84.1471 148.79 83.8951 148.526C83.6431 148.262 83.3011 148.13 82.8691 148.13H79.6111V150.812H82.8691ZM82.8151 146.942C83.2231 146.942 83.5411 146.834 83.7691 146.618C83.9971 146.39 84.1111 146.096 84.1111 145.736C84.1111 145.352 83.9971 145.052 83.7691 144.836C83.5411 144.608 83.2231 144.494 82.8151 144.494H79.6111V146.942H82.8151ZM95.8779 152H94.1499L91.0179 148.094L89.5779 149.516V152H88.2279V143.306H89.5779V147.932L94.1499 143.306H95.8599L92.0079 147.248L95.8779 152ZM104.26 152H102.91V151.01C102.178 151.814 101.218 152.216 100.03 152.216C99.226 152.216 98.518 151.958 97.906 151.442C97.294 150.926 96.988 150.224 96.988 149.336C96.988 148.424 97.288 147.722 97.888 147.23C98.5 146.726 99.214 146.474 100.03 146.474C101.266 146.474 102.226 146.87 102.91 147.662V146.096C102.91 145.52 102.706 145.07 102.298 144.746C101.89 144.422 101.362 144.26 100.714 144.26C99.694 144.26 98.806 144.662 98.05 145.466L97.42 144.53C98.344 143.57 99.502 143.09 100.894 143.09C101.89 143.09 102.7 143.33 103.324 143.81C103.948 144.29 104.26 145.028 104.26 146.024V152ZM100.516 151.244C101.596 151.244 102.394 150.884 102.91 150.164V148.526C102.394 147.806 101.596 147.446 100.516 147.446C99.892 147.446 99.376 147.626 98.968 147.986C98.572 148.334 98.374 148.79 98.374 149.354C98.374 149.906 98.572 150.362 98.968 150.722C99.376 151.07 99.892 151.244 100.516 151.244ZM108.784 151.568C108.784 152.096 108.646 152.6 108.37 153.08C108.094 153.572 107.74 153.974 107.308 154.286L106.642 153.728C106.942 153.536 107.2 153.278 107.416 152.954C107.644 152.642 107.776 152.342 107.812 152.054C107.764 152.078 107.68 152.09 107.56 152.09C107.308 152.09 107.098 152.006 106.93 151.838C106.774 151.658 106.696 151.436 106.696 151.172C106.696 150.908 106.786 150.68 106.966 150.488C107.158 150.296 107.386 150.2 107.65 150.2C107.962 150.2 108.226 150.326 108.442 150.578C108.67 150.818 108.784 151.148 108.784 151.568ZM122.991 152H121.641V144.494H117.105V152H115.755V143.306H122.991V152ZM129.611 152.216C128.315 152.216 127.253 151.796 126.425 150.956C125.597 150.104 125.183 149 125.183 147.644C125.183 146.372 125.591 145.298 126.407 144.422C127.223 143.534 128.243 143.09 129.467 143.09C130.751 143.09 131.765 143.534 132.509 144.422C133.265 145.298 133.643 146.408 133.643 147.752V148.094H126.605C126.665 148.946 126.977 149.66 127.541 150.236C128.105 150.812 128.837 151.1 129.737 151.1C130.817 151.1 131.711 150.734 132.419 150.002L133.067 150.884C132.179 151.772 131.027 152.216 129.611 152.216ZM132.311 147.104C132.299 146.36 132.047 145.694 131.555 145.106C131.063 144.506 130.361 144.206 129.449 144.206C128.585 144.206 127.901 144.5 127.397 145.088C126.905 145.676 126.641 146.348 126.605 147.104H132.311ZM140.113 152.216C138.889 152.216 137.911 151.706 137.179 150.686V155.312H135.829V143.306H137.179V144.602C137.503 144.146 137.923 143.78 138.439 143.504C138.955 143.228 139.513 143.09 140.113 143.09C141.265 143.09 142.195 143.504 142.903 144.332C143.623 145.148 143.983 146.252 143.983 147.644C143.983 149.036 143.623 150.146 142.903 150.974C142.195 151.802 141.265 152.216 140.113 152.216ZM139.771 151.01C140.623 151.01 141.301 150.698 141.805 150.074C142.309 149.438 142.561 148.628 142.561 147.644C142.561 146.66 142.309 145.856 141.805 145.232C141.301 144.608 140.623 144.296 139.771 144.296C139.255 144.296 138.751 144.434 138.259 144.71C137.779 144.974 137.419 145.298 137.179 145.682V149.606C137.419 150.002 137.779 150.338 138.259 150.614C138.751 150.878 139.255 151.01 139.771 151.01ZM150.054 152.216C148.758 152.216 147.696 151.796 146.868 150.956C146.04 150.104 145.626 149 145.626 147.644C145.626 146.372 146.034 145.298 146.85 144.422C147.666 143.534 148.686 143.09 149.91 143.09C151.194 143.09 152.208 143.534 152.952 144.422C153.708 145.298 154.086 146.408 154.086 147.752V148.094H147.048C147.108 148.946 147.42 149.66 147.984 150.236C148.548 150.812 149.28 151.1 150.18 151.1C151.26 151.1 152.154 150.734 152.862 150.002L153.51 150.884C152.622 151.772 151.47 152.216 150.054 152.216ZM152.754 147.104C152.742 146.36 152.49 145.694 151.998 145.106C151.506 144.506 150.804 144.206 149.892 144.206C149.028 144.206 148.344 144.5 147.84 145.088C147.348 145.676 147.084 146.348 147.048 147.104H152.754ZM155.787 155.402L156.003 154.178C156.219 154.274 156.465 154.322 156.741 154.322C157.053 154.322 157.311 154.256 157.515 154.124C157.719 153.992 157.893 153.752 158.037 153.404L158.613 152.09L154.977 143.306H156.435L159.333 150.434L162.213 143.306H163.689L159.333 153.764C158.853 154.916 158.001 155.504 156.777 155.528C156.417 155.528 156.087 155.486 155.787 155.402ZM172.333 152H170.983V144.494H166.447V152H165.097V143.306H172.333V152ZM181.815 152H180.465V151.01C179.733 151.814 178.773 152.216 177.585 152.216C176.781 152.216 176.073 151.958 175.461 151.442C174.849 150.926 174.543 150.224 174.543 149.336C174.543 148.424 174.843 147.722 175.443 147.23C176.055 146.726 176.769 146.474 177.585 146.474C178.821 146.474 179.781 146.87 180.465 147.662V146.096C180.465 145.52 180.261 145.07 179.853 144.746C179.445 144.422 178.917 144.26 178.269 144.26C177.249 144.26 176.361 144.662 175.605 145.466L174.975 144.53C175.899 143.57 177.057 143.09 178.449 143.09C179.445 143.09 180.255 143.33 180.879 143.81C181.503 144.29 181.815 145.028 181.815 146.024V152ZM178.071 151.244C179.151 151.244 179.949 150.884 180.465 150.164V148.526C179.949 147.806 179.151 147.446 178.071 147.446C177.447 147.446 176.931 147.626 176.523 147.986C176.127 148.334 175.929 148.79 175.929 149.354C175.929 149.906 176.127 150.362 176.523 150.722C176.931 151.07 177.447 151.244 178.071 151.244ZM192.171 152H190.443L187.311 148.094L185.871 149.516V152H184.521V143.306H185.871V147.932L190.443 143.306H192.153L188.301 147.248L192.171 152ZM200.626 150.902C199.846 151.778 198.808 152.216 197.512 152.216C196.216 152.216 195.172 151.778 194.38 150.902C193.6 150.026 193.21 148.94 193.21 147.644C193.21 146.348 193.6 145.268 194.38 144.404C195.172 143.528 196.216 143.09 197.512 143.09C198.808 143.09 199.846 143.528 200.626 144.404C201.418 145.268 201.814 146.348 201.814 147.644C201.814 148.94 201.418 150.026 200.626 150.902ZM195.388 150.038C195.916 150.686 196.624 151.01 197.512 151.01C198.4 151.01 199.102 150.686 199.618 150.038C200.134 149.378 200.392 148.58 200.392 147.644C200.392 146.708 200.134 145.916 199.618 145.268C199.102 144.62 198.4 144.296 197.512 144.296C196.624 144.296 195.916 144.626 195.388 145.286C194.872 145.934 194.614 146.72 194.614 147.644C194.614 148.58 194.872 149.378 195.388 150.038ZM208.893 152H204.015V143.306H208.803C209.559 143.306 210.153 143.51 210.585 143.918C211.029 144.326 211.251 144.866 211.251 145.538C211.251 146.03 211.113 146.456 210.837 146.816C210.573 147.164 210.243 147.398 209.847 147.518C210.291 147.626 210.663 147.884 210.963 148.292C211.275 148.7 211.431 149.15 211.431 149.642C211.431 150.35 211.203 150.92 210.747 151.352C210.303 151.784 209.685 152 208.893 152ZM208.623 150.812C209.055 150.812 209.397 150.692 209.649 150.452C209.901 150.212 210.027 149.888 210.027 149.48C210.027 149.108 209.901 148.79 209.649 148.526C209.397 148.262 209.055 148.13 208.623 148.13H205.365V150.812H208.623ZM208.569 146.942C208.977 146.942 209.295 146.834 209.523 146.618C209.751 146.39 209.865 146.096 209.865 145.736C209.865 145.352 209.751 145.052 209.523 144.836C209.295 144.608 208.977 144.494 208.569 144.494H205.365V146.942H208.569ZM221.632 152H219.904L216.772 148.094L215.332 149.516V152H213.982V143.306H215.332V147.932L219.904 143.306H221.614L217.762 147.248L221.632 152ZM230.014 152H228.664V151.01C227.932 151.814 226.972 152.216 225.784 152.216C224.98 152.216 224.272 151.958 223.66 151.442C223.048 150.926 222.742 150.224 222.742 149.336C222.742 148.424 223.042 147.722 223.642 147.23C224.254 146.726 224.968 146.474 225.784 146.474C227.02 146.474 227.98 146.87 228.664 147.662V146.096C228.664 145.52 228.46 145.07 228.052 144.746C227.644 144.422 227.116 144.26 226.468 144.26C225.448 144.26 224.56 144.662 223.804 145.466L223.174 144.53C224.098 143.57 225.256 143.09 226.648 143.09C227.644 143.09 228.454 143.33 229.078 143.81C229.702 144.29 230.014 145.028 230.014 146.024V152ZM226.27 151.244C227.35 151.244 228.148 150.884 228.664 150.164V148.526C228.148 147.806 227.35 147.446 226.27 147.446C225.646 147.446 225.13 147.626 224.722 147.986C224.326 148.334 224.128 148.79 224.128 149.354C224.128 149.906 224.326 150.362 224.722 150.722C225.13 151.07 225.646 151.244 226.27 151.244ZM234.538 151.568C234.538 152.096 234.4 152.6 234.124 153.08C233.848 153.572 233.494 153.974 233.062 154.286L232.396 153.728C232.696 153.536 232.954 153.278 233.17 152.954C233.398 152.642 233.53 152.342 233.566 152.054C233.518 152.078 233.434 152.09 233.314 152.09C233.062 152.09 232.852 152.006 232.684 151.838C232.528 151.658 232.45 151.436 232.45 151.172C232.45 150.908 232.54 150.68 232.72 150.488C232.912 150.296 233.14 150.2 233.404 150.2C233.716 150.2 233.98 150.326 234.196 150.578C234.424 150.818 234.538 151.148 234.538 151.568ZM39.6358 174H38.2858V166.494H33.7498V174H32.3998V165.306H39.6358V174ZM49.1174 174H47.7674V173.01C47.0354 173.814 46.0754 174.216 44.8874 174.216C44.0834 174.216 43.3754 173.958 42.7634 173.442C42.1514 172.926 41.8454 172.224 41.8454 171.336C41.8454 170.424 42.1454 169.722 42.7454 169.23C43.3574 168.726 44.0714 168.474 44.8874 168.474C46.1234 168.474 47.0834 168.87 47.7674 169.662V168.096C47.7674 167.52 47.5634 167.07 47.1554 166.746C46.7474 166.422 46.2194 166.26 45.5714 166.26C44.5514 166.26 43.6634 166.662 42.9074 167.466L42.2774 166.53C43.2014 165.57 44.3594 165.09 45.7514 165.09C46.7474 165.09 47.5574 165.33 48.1814 165.81C48.8054 166.29 49.1174 167.028 49.1174 168.024V174ZM45.3734 173.244C46.4534 173.244 47.2514 172.884 47.7674 172.164V170.526C47.2514 169.806 46.4534 169.446 45.3734 169.446C44.7494 169.446 44.2334 169.626 43.8254 169.986C43.4294 170.334 43.2314 170.79 43.2314 171.354C43.2314 171.906 43.4294 172.362 43.8254 172.722C44.2334 173.07 44.7494 173.244 45.3734 173.244ZM50.7976 174.216V173.1C51.2056 173.1 51.5416 172.83 51.8056 172.29C52.0696 171.75 52.2856 170.85 52.4536 169.59L53.0116 165.306H59.0596V174H57.7096V166.494H54.1996L53.8036 169.752C53.6116 171.348 53.2756 172.494 52.7956 173.19C52.3156 173.874 51.6496 174.216 50.7976 174.216ZM60.7293 174.216V173.1C61.1373 173.1 61.4733 172.83 61.7373 172.29C62.0013 171.75 62.2173 170.85 62.3853 169.59L62.9433 165.306H68.9913V174H67.6413V166.494H64.1313L63.7353 169.752C63.5433 171.348 63.2073 172.494 62.7273 173.19C62.2473 173.874 61.5813 174.216 60.7293 174.216ZM75.6109 174.216C74.3149 174.216 73.2529 173.796 72.4249 172.956C71.5969 172.104 71.1829 171 71.1829 169.644C71.1829 168.372 71.5909 167.298 72.4069 166.422C73.2229 165.534 74.2429 165.09 75.4669 165.09C76.7509 165.09 77.7649 165.534 78.5089 166.422C79.2649 167.298 79.6429 168.408 79.6429 169.752V170.094H72.6049C72.6649 170.946 72.9769 171.66 73.5409 172.236C74.1049 172.812 74.8369 173.1 75.7369 173.1C76.8169 173.1 77.7109 172.734 78.4189 172.002L79.0669 172.884C78.1789 173.772 77.0269 174.216 75.6109 174.216ZM78.3109 169.104C78.2989 168.36 78.0469 167.694 77.5549 167.106C77.0629 166.506 76.3609 166.206 75.4489 166.206C74.5849 166.206 73.9009 166.5 73.3969 167.088C72.9049 167.676 72.6409 168.348 72.6049 169.104H78.3109ZM84.7635 174H83.4135V166.494H80.8935V165.306H87.3015V166.494H84.7635V174ZM90.3677 174H89.0717V165.306H90.4217V171.948L94.9757 165.306H96.3077V174H94.9577V167.232L90.3677 174ZM103.287 174.216C102.063 174.216 101.085 173.706 100.353 172.686V177.312H99.0033V165.306H100.353V166.602C100.677 166.146 101.097 165.78 101.613 165.504C102.129 165.228 102.687 165.09 103.287 165.09C104.439 165.09 105.369 165.504 106.077 166.332C106.797 167.148 107.157 168.252 107.157 169.644C107.157 171.036 106.797 172.146 106.077 172.974C105.369 173.802 104.439 174.216 103.287 174.216ZM102.945 173.01C103.797 173.01 104.475 172.698 104.979 172.074C105.483 171.438 105.735 170.628 105.735 169.644C105.735 168.66 105.483 167.856 104.979 167.232C104.475 166.608 103.797 166.296 102.945 166.296C102.429 166.296 101.925 166.434 101.433 166.71C100.953 166.974 100.593 167.298 100.353 167.682V171.606C100.593 172.002 100.953 172.338 101.433 172.614C101.925 172.878 102.429 173.01 102.945 173.01ZM116.216 172.902C115.436 173.778 114.398 174.216 113.102 174.216C111.806 174.216 110.762 173.778 109.97 172.902C109.19 172.026 108.8 170.94 108.8 169.644C108.8 168.348 109.19 167.268 109.97 166.404C110.762 165.528 111.806 165.09 113.102 165.09C114.398 165.09 115.436 165.528 116.216 166.404C117.008 167.268 117.404 168.348 117.404 169.644C117.404 170.94 117.008 172.026 116.216 172.902ZM110.978 172.038C111.506 172.686 112.214 173.01 113.102 173.01C113.99 173.01 114.692 172.686 115.208 172.038C115.724 171.378 115.982 170.58 115.982 169.644C115.982 168.708 115.724 167.916 115.208 167.268C114.692 166.62 113.99 166.296 113.102 166.296C112.214 166.296 111.506 166.626 110.978 167.286C110.462 167.934 110.204 168.72 110.204 169.644C110.204 170.58 110.462 171.378 110.978 172.038ZM124.483 174H119.605V165.306H124.393C125.149 165.306 125.743 165.51 126.175 165.918C126.619 166.326 126.841 166.866 126.841 167.538C126.841 168.03 126.703 168.456 126.427 168.816C126.163 169.164 125.833 169.398 125.437 169.518C125.881 169.626 126.253 169.884 126.553 170.292C126.865 170.7 127.021 171.15 127.021 171.642C127.021 172.35 126.793 172.92 126.337 173.352C125.893 173.784 125.275 174 124.483 174ZM124.213 172.812C124.645 172.812 124.987 172.692 125.239 172.452C125.491 172.212 125.617 171.888 125.617 171.48C125.617 171.108 125.491 170.79 125.239 170.526C124.987 170.262 124.645 170.13 124.213 170.13H120.955V172.812H124.213ZM124.159 168.942C124.567 168.942 124.885 168.834 125.113 168.618C125.341 168.39 125.455 168.096 125.455 167.736C125.455 167.352 125.341 167.052 125.113 166.836C124.885 166.608 124.567 166.494 124.159 166.494H120.955V168.942H124.159ZM136.358 174H135.008V173.01C134.276 173.814 133.316 174.216 132.128 174.216C131.324 174.216 130.616 173.958 130.004 173.442C129.392 172.926 129.086 172.224 129.086 171.336C129.086 170.424 129.386 169.722 129.986 169.23C130.598 168.726 131.312 168.474 132.128 168.474C133.364 168.474 134.324 168.87 135.008 169.662V168.096C135.008 167.52 134.804 167.07 134.396 166.746C133.988 166.422 133.46 166.26 132.812 166.26C131.792 166.26 130.904 166.662 130.148 167.466L129.518 166.53C130.442 165.57 131.6 165.09 132.992 165.09C133.988 165.09 134.798 165.33 135.422 165.81C136.046 166.29 136.358 167.028 136.358 168.024V174ZM132.614 173.244C133.694 173.244 134.492 172.884 135.008 172.164V170.526C134.492 169.806 133.694 169.446 132.614 169.446C131.99 169.446 131.474 169.626 131.066 169.986C130.67 170.334 130.472 170.79 130.472 171.354C130.472 171.906 130.67 172.362 131.066 172.722C131.474 173.07 131.99 173.244 132.614 173.244ZM140.414 174H139.064V165.306H140.414V168.924H144.95V165.306H146.3V174H144.95V170.112H140.414V174ZM150.292 174H148.996V165.306H150.346V171.948L154.9 165.306H156.232V174H154.882V167.232L150.292 174ZM162.851 174.216C161.555 174.216 160.493 173.796 159.665 172.956C158.837 172.104 158.423 171 158.423 169.644C158.423 168.372 158.831 167.298 159.647 166.422C160.463 165.534 161.483 165.09 162.707 165.09C163.991 165.09 165.005 165.534 165.749 166.422C166.505 167.298 166.883 168.408 166.883 169.752V170.094H159.845C159.905 170.946 160.217 171.66 160.781 172.236C161.345 172.812 162.077 173.1 162.977 173.1C164.057 173.1 164.951 172.734 165.659 172.002L166.307 172.884C165.419 173.772 164.267 174.216 162.851 174.216ZM165.551 169.104C165.539 168.36 165.287 167.694 164.795 167.106C164.303 166.506 163.601 166.206 162.689 166.206C161.825 166.206 161.141 166.5 160.637 167.088C160.145 167.676 159.881 168.348 159.845 169.104H165.551ZM179.794 165.306V166.494H175.06V174H173.71V165.306H179.794ZM185.834 174.216C184.61 174.216 183.632 173.706 182.9 172.686V177.312H181.55V165.306H182.9V166.602C183.224 166.146 183.644 165.78 184.16 165.504C184.676 165.228 185.234 165.09 185.834 165.09C186.986 165.09 187.916 165.504 188.624 166.332C189.344 167.148 189.704 168.252 189.704 169.644C189.704 171.036 189.344 172.146 188.624 172.974C187.916 173.802 186.986 174.216 185.834 174.216ZM185.492 173.01C186.344 173.01 187.022 172.698 187.526 172.074C188.03 171.438 188.282 170.628 188.282 169.644C188.282 168.66 188.03 167.856 187.526 167.232C187.022 166.608 186.344 166.296 185.492 166.296C184.976 166.296 184.472 166.434 183.98 166.71C183.5 166.974 183.14 167.298 182.9 167.682V171.606C183.14 172.002 183.5 172.338 183.98 172.614C184.472 172.878 184.976 173.01 185.492 173.01ZM191.365 177.402L191.581 176.178C191.797 176.274 192.043 176.322 192.319 176.322C192.631 176.322 192.889 176.256 193.093 176.124C193.297 175.992 193.471 175.752 193.615 175.404L194.191 174.09L190.555 165.306H192.013L194.911 172.434L197.791 165.306H199.267L194.911 175.764C194.431 176.916 193.579 177.504 192.355 177.528C191.995 177.528 191.665 177.486 191.365 177.402ZM203.753 174.216C202.085 174.216 200.777 173.742 199.829 172.794L200.495 171.93C201.311 172.71 202.397 173.1 203.753 173.1C204.533 173.1 205.151 172.962 205.607 172.686C206.075 172.41 206.309 172.044 206.309 171.588C206.309 170.628 205.397 170.148 203.573 170.148H201.629V169.05H203.573C204.329 169.05 204.947 168.93 205.427 168.69C205.907 168.438 206.147 168.072 206.147 167.592C206.147 167.184 205.907 166.854 205.427 166.602C204.947 166.338 204.341 166.206 203.609 166.206C202.397 166.206 201.425 166.578 200.693 167.322L199.991 166.494C200.891 165.57 202.079 165.108 203.555 165.108C204.743 165.096 205.703 165.3 206.435 165.72C207.179 166.128 207.551 166.698 207.551 167.43C207.551 168.03 207.305 168.516 206.813 168.888C206.333 169.26 205.799 169.482 205.211 169.554C205.823 169.602 206.393 169.806 206.921 170.166C207.461 170.526 207.731 171.03 207.731 171.678C207.731 172.422 207.371 173.034 206.651 173.514C205.943 173.982 204.977 174.216 203.753 174.216ZM216.707 174H215.357V173.01C214.625 173.814 213.665 174.216 212.477 174.216C211.673 174.216 210.965 173.958 210.353 173.442C209.741 172.926 209.435 172.224 209.435 171.336C209.435 170.424 209.735 169.722 210.335 169.23C210.947 168.726 211.661 168.474 212.477 168.474C213.713 168.474 214.673 168.87 215.357 169.662V168.096C215.357 167.52 215.153 167.07 214.745 166.746C214.337 166.422 213.809 166.26 213.161 166.26C212.141 166.26 211.253 166.662 210.497 167.466L209.867 166.53C210.791 165.57 211.949 165.09 213.341 165.09C214.337 165.09 215.147 165.33 215.771 165.81C216.395 166.29 216.707 167.028 216.707 168.024V174ZM212.963 173.244C214.043 173.244 214.841 172.884 215.357 172.164V170.526C214.841 169.806 214.043 169.446 212.963 169.446C212.339 169.446 211.823 169.626 211.415 169.986C211.019 170.334 210.821 170.79 210.821 171.354C210.821 171.906 211.019 172.362 211.415 172.722C211.823 173.07 212.339 173.244 212.963 173.244ZM231.704 174H229.976L226.844 170.094L225.404 171.516V174H224.054V165.306H225.404V169.932L229.976 165.306H231.686L227.834 169.248L231.704 174ZM27.8705 196H26.5205V189.178L23.6945 196H23.1905L20.3465 189.178V196H18.9965V187.306H20.7785L23.4425 193.75L26.0705 187.306H27.8705V196ZM34.4869 196.216C33.1909 196.216 32.1289 195.796 31.3009 194.956C30.4729 194.104 30.0589 193 30.0589 191.644C30.0589 190.372 30.4669 189.298 31.2829 188.422C32.0989 187.534 33.1189 187.09 34.3429 187.09C35.6269 187.09 36.6409 187.534 37.3849 188.422C38.1409 189.298 38.5189 190.408 38.5189 191.752V192.094H31.4809C31.5409 192.946 31.8529 193.66 32.4169 194.236C32.9809 194.812 33.7129 195.1 34.6129 195.1C35.6929 195.1 36.5869 194.734 37.2949 194.002L37.9429 194.884C37.0549 195.772 35.9029 196.216 34.4869 196.216ZM37.1869 191.104C37.1749 190.36 36.9229 189.694 36.4309 189.106C35.9389 188.506 35.2369 188.206 34.3249 188.206C33.4609 188.206 32.7769 188.5 32.2729 189.088C31.7809 189.676 31.5169 190.348 31.4809 191.104H37.1869ZM41.3355 196H39.6075L43.4775 191.248L39.6255 187.306H41.3355L45.0795 191.14V187.306H46.4295V191.122L50.1735 187.306H51.8835L48.0135 191.248L51.9015 196H50.1735L47.0415 192.094L46.4295 192.706V196H45.0795V192.706L44.4675 192.094L41.3355 196ZM52.4763 198.214V194.884C52.9203 194.8 53.2683 194.536 53.5203 194.092C53.7723 193.636 53.9763 192.802 54.1323 191.59L54.6903 187.306H60.7383V194.812H61.7463V198.214H60.3963V196H53.8263V198.214H52.4763ZM55.8783 188.494L55.4823 191.752C55.2783 193.276 54.8583 194.296 54.2223 194.812H59.3883V188.494H55.8783ZM63.1062 199.402L63.3222 198.178C63.5382 198.274 63.7842 198.322 64.0602 198.322C64.3722 198.322 64.6302 198.256 64.8342 198.124C65.0382 197.992 65.2122 197.752 65.3562 197.404L65.9322 196.09L62.2962 187.306H63.7542L66.6522 194.434L69.5322 187.306H71.0082L66.6522 197.764C66.1722 198.916 65.3202 199.504 64.0962 199.528C63.7362 199.528 63.4062 199.486 63.1062 199.402ZM73.7664 196H72.4164V187.306H73.7664V190.924H78.3024V187.306H79.6524V196H78.3024V192.112H73.7664V196ZM89.134 196H87.784V195.01C87.052 195.814 86.092 196.216 84.904 196.216C84.1 196.216 83.392 195.958 82.78 195.442C82.168 194.926 81.862 194.224 81.862 193.336C81.862 192.424 82.162 191.722 82.762 191.23C83.374 190.726 84.088 190.474 84.904 190.474C86.14 190.474 87.1 190.87 87.784 191.662V190.096C87.784 189.52 87.58 189.07 87.172 188.746C86.764 188.422 86.236 188.26 85.588 188.26C84.568 188.26 83.68 188.662 82.924 189.466L82.294 188.53C83.218 187.57 84.376 187.09 85.768 187.09C86.764 187.09 87.574 187.33 88.198 187.81C88.822 188.29 89.134 189.028 89.134 190.024V196ZM85.39 195.244C86.47 195.244 87.268 194.884 87.784 194.164V192.526C87.268 191.806 86.47 191.446 85.39 191.446C84.766 191.446 84.25 191.626 83.842 191.986C83.446 192.334 83.248 192.79 83.248 193.354C83.248 193.906 83.446 194.362 83.842 194.722C84.25 195.07 84.766 195.244 85.39 195.244ZM96.1242 196.216C94.9002 196.216 93.9222 195.706 93.1902 194.686V199.312H91.8402V187.306H93.1902V188.602C93.5142 188.146 93.9342 187.78 94.4502 187.504C94.9662 187.228 95.5242 187.09 96.1242 187.09C97.2762 187.09 98.2062 187.504 98.9142 188.332C99.6342 189.148 99.9942 190.252 99.9942 191.644C99.9942 193.036 99.6342 194.146 98.9142 194.974C98.2062 195.802 97.2762 196.216 96.1242 196.216ZM95.7822 195.01C96.6342 195.01 97.3122 194.698 97.8162 194.074C98.3202 193.438 98.5722 192.628 98.5722 191.644C98.5722 190.66 98.3202 189.856 97.8162 189.232C97.3122 188.608 96.6342 188.296 95.7822 188.296C95.2662 188.296 94.7622 188.434 94.2702 188.71C93.7902 188.974 93.4302 189.298 93.1902 189.682V193.606C93.4302 194.002 93.7902 194.338 94.2702 194.614C94.7622 194.878 95.2662 195.01 95.7822 195.01ZM109.053 194.902C108.273 195.778 107.235 196.216 105.939 196.216C104.643 196.216 103.599 195.778 102.807 194.902C102.027 194.026 101.637 192.94 101.637 191.644C101.637 190.348 102.027 189.268 102.807 188.404C103.599 187.528 104.643 187.09 105.939 187.09C107.235 187.09 108.273 187.528 109.053 188.404C109.845 189.268 110.241 190.348 110.241 191.644C110.241 192.94 109.845 194.026 109.053 194.902ZM103.815 194.038C104.343 194.686 105.051 195.01 105.939 195.01C106.827 195.01 107.529 194.686 108.045 194.038C108.561 193.378 108.819 192.58 108.819 191.644C108.819 190.708 108.561 189.916 108.045 189.268C107.529 188.62 106.827 188.296 105.939 188.296C105.051 188.296 104.343 188.626 103.815 189.286C103.299 189.934 103.041 190.72 103.041 191.644C103.041 192.58 103.299 193.378 103.815 194.038ZM111.416 198.214V194.884C111.86 194.8 112.208 194.536 112.46 194.092C112.712 193.636 112.916 192.802 113.072 191.59L113.63 187.306H119.678V194.812H120.686V198.214H119.336V196H112.766V198.214H111.416ZM114.818 188.494L114.422 191.752C114.218 193.276 113.798 194.296 113.162 194.812H118.328V188.494H114.818ZM123.882 196H122.532V187.306H123.882V190.924H128.418V187.306H129.768V196H128.418V192.112H123.882V196ZM139.375 194.902C138.595 195.778 137.557 196.216 136.261 196.216C134.965 196.216 133.921 195.778 133.129 194.902C132.349 194.026 131.959 192.94 131.959 191.644C131.959 190.348 132.349 189.268 133.129 188.404C133.921 187.528 134.965 187.09 136.261 187.09C137.557 187.09 138.595 187.528 139.375 188.404C140.167 189.268 140.563 190.348 140.563 191.644C140.563 192.94 140.167 194.026 139.375 194.902ZM134.137 194.038C134.665 194.686 135.373 195.01 136.261 195.01C137.149 195.01 137.851 194.686 138.367 194.038C138.883 193.378 139.141 192.58 139.141 191.644C139.141 190.708 138.883 189.916 138.367 189.268C137.851 188.62 137.149 188.296 136.261 188.296C135.373 188.296 134.665 188.626 134.137 189.286C133.621 189.934 133.363 190.72 133.363 191.644C133.363 192.58 133.621 193.378 134.137 194.038ZM144.06 196H142.764V187.306H144.114V193.948L148.668 187.306H150V196H148.65V189.232L144.06 196ZM149.532 184.732C148.752 185.788 147.702 186.316 146.382 186.316C145.074 186.316 144.018 185.788 143.214 184.732L143.88 184.156C144.504 185.02 145.338 185.452 146.382 185.452C147.438 185.452 148.266 185.02 148.866 184.156L149.532 184.732ZM164.572 196H163.222V188.494H158.686V196H157.336V187.306H164.572V196ZM171.192 196.216C169.896 196.216 168.834 195.796 168.006 194.956C167.178 194.104 166.764 193 166.764 191.644C166.764 190.372 167.172 189.298 167.988 188.422C168.804 187.534 169.824 187.09 171.048 187.09C172.332 187.09 173.346 187.534 174.09 188.422C174.846 189.298 175.224 190.408 175.224 191.752V192.094H168.186C168.246 192.946 168.558 193.66 169.122 194.236C169.686 194.812 170.418 195.1 171.318 195.1C172.398 195.1 173.292 194.734 174 194.002L174.648 194.884C173.76 195.772 172.608 196.216 171.192 196.216ZM173.892 191.104C173.88 190.36 173.628 189.694 173.136 189.106C172.644 188.506 171.942 188.206 171.03 188.206C170.166 188.206 169.482 188.5 168.978 189.088C168.486 189.676 168.222 190.348 168.186 191.104H173.892ZM181.695 196.216C180.471 196.216 179.493 195.706 178.761 194.686V199.312H177.411V187.306H178.761V188.602C179.085 188.146 179.505 187.78 180.021 187.504C180.537 187.228 181.095 187.09 181.695 187.09C182.847 187.09 183.777 187.504 184.485 188.332C185.205 189.148 185.565 190.252 185.565 191.644C185.565 193.036 185.205 194.146 184.485 194.974C183.777 195.802 182.847 196.216 181.695 196.216ZM181.353 195.01C182.205 195.01 182.883 194.698 183.387 194.074C183.891 193.438 184.143 192.628 184.143 191.644C184.143 190.66 183.891 189.856 183.387 189.232C182.883 188.608 182.205 188.296 181.353 188.296C180.837 188.296 180.333 188.434 179.841 188.71C179.361 188.974 179.001 189.298 178.761 189.682V193.606C179.001 194.002 179.361 194.338 179.841 194.614C180.333 194.878 180.837 195.01 181.353 195.01ZM191.635 196.216C190.339 196.216 189.277 195.796 188.449 194.956C187.621 194.104 187.207 193 187.207 191.644C187.207 190.372 187.615 189.298 188.431 188.422C189.247 187.534 190.267 187.09 191.491 187.09C192.775 187.09 193.789 187.534 194.533 188.422C195.289 189.298 195.667 190.408 195.667 191.752V192.094H188.629C188.689 192.946 189.001 193.66 189.565 194.236C190.129 194.812 190.861 195.1 191.761 195.1C192.841 195.1 193.735 194.734 194.443 194.002L195.091 194.884C194.203 195.772 193.051 196.216 191.635 196.216ZM194.335 191.104C194.323 190.36 194.071 189.694 193.579 189.106C193.087 188.506 192.385 188.206 191.473 188.206C190.609 188.206 189.925 188.5 189.421 189.088C188.929 189.676 188.665 190.348 188.629 191.104H194.335ZM202.732 196H197.854V187.306H202.642C203.398 187.306 203.992 187.51 204.424 187.918C204.868 188.326 205.09 188.866 205.09 189.538C205.09 190.03 204.952 190.456 204.676 190.816C204.412 191.164 204.082 191.398 203.686 191.518C204.13 191.626 204.502 191.884 204.802 192.292C205.114 192.7 205.27 193.15 205.27 193.642C205.27 194.35 205.042 194.92 204.586 195.352C204.142 195.784 203.524 196 202.732 196ZM202.462 194.812C202.894 194.812 203.236 194.692 203.488 194.452C203.74 194.212 203.866 193.888 203.866 193.48C203.866 193.108 203.74 192.79 203.488 192.526C203.236 192.262 202.894 192.13 202.462 192.13H199.204V194.812H202.462ZM202.408 190.942C202.816 190.942 203.134 190.834 203.362 190.618C203.59 190.39 203.704 190.096 203.704 189.736C203.704 189.352 203.59 189.052 203.362 188.836C203.134 188.608 202.816 188.494 202.408 188.494H199.204V190.942H202.408ZM214.733 194.902C213.953 195.778 212.915 196.216 211.619 196.216C210.323 196.216 209.279 195.778 208.487 194.902C207.707 194.026 207.317 192.94 207.317 191.644C207.317 190.348 207.707 189.268 208.487 188.404C209.279 187.528 210.323 187.09 211.619 187.09C212.915 187.09 213.953 187.528 214.733 188.404C215.525 189.268 215.921 190.348 215.921 191.644C215.921 192.94 215.525 194.026 214.733 194.902ZM209.495 194.038C210.023 194.686 210.731 195.01 211.619 195.01C212.507 195.01 213.209 194.686 213.725 194.038C214.241 193.378 214.499 192.58 214.499 191.644C214.499 190.708 214.241 189.916 213.725 189.268C213.209 188.62 212.507 188.296 211.619 188.296C210.731 188.296 210.023 188.626 209.495 189.286C208.979 189.934 208.721 190.72 208.721 191.644C208.721 192.58 208.979 193.378 209.495 194.038ZM221.199 196.216C219.531 196.216 218.223 195.742 217.275 194.794L217.941 193.93C218.757 194.71 219.843 195.1 221.199 195.1C221.979 195.1 222.597 194.962 223.053 194.686C223.521 194.41 223.755 194.044 223.755 193.588C223.755 192.628 222.843 192.148 221.019 192.148H219.075V191.05H221.019C221.775 191.05 222.393 190.93 222.873 190.69C223.353 190.438 223.593 190.072 223.593 189.592C223.593 189.184 223.353 188.854 222.873 188.602C222.393 188.338 221.787 188.206 221.055 188.206C219.843 188.206 218.871 188.578 218.139 189.322L217.437 188.494C218.337 187.57 219.525 187.108 221.001 187.108C222.189 187.096 223.149 187.3 223.881 187.72C224.625 188.128 224.997 188.698 224.997 189.43C224.997 190.03 224.751 190.516 224.259 190.888C223.779 191.26 223.245 191.482 222.657 191.554C223.269 191.602 223.839 191.806 224.367 192.166C224.907 192.526 225.177 193.03 225.177 193.678C225.177 194.422 224.817 195.034 224.097 195.514C223.389 195.982 222.423 196.216 221.199 196.216ZM235.018 196H233.29L230.158 192.094L228.718 193.516V196H227.368V187.306H228.718V191.932L233.29 187.306H235L231.148 191.248L235.018 196ZM240.485 196.216C239.189 196.216 238.127 195.796 237.299 194.956C236.471 194.104 236.057 193 236.057 191.644C236.057 190.372 236.465 189.298 237.281 188.422C238.097 187.534 239.117 187.09 240.341 187.09C241.625 187.09 242.639 187.534 243.383 188.422C244.139 189.298 244.517 190.408 244.517 191.752V192.094H237.479C237.539 192.946 237.851 193.66 238.415 194.236C238.979 194.812 239.711 195.1 240.611 195.1C241.691 195.1 242.585 194.734 243.293 194.002L243.941 194.884C243.053 195.772 241.901 196.216 240.485 196.216ZM243.185 191.104C243.173 190.36 242.921 189.694 242.429 189.106C241.937 188.506 241.235 188.206 240.323 188.206C239.459 188.206 238.775 188.5 238.271 189.088C237.779 189.676 237.515 190.348 237.479 191.104H243.185Z" fill="white"/>
<rect x="75.5" y="0.5" width="112" height="112" rx="56" stroke="#6C7188"/>
<g filter="url(#filter0_d_5856_2323)">
<rect x="85" y="10" width="93" height="93" rx="46.5" fill="#89C249"/>
</g>
<g clip-path="url(#clip0_5856_2323)">
<path d="M140.622 51.1667H123.372C122.843 51.1667 122.414 50.7373 122.414 50.2083V32.9583C122.414 32.4293 122.843 32 123.372 32H140.622C141.151 32 141.581 32.4293 141.581 32.9583V50.2083C141.581 50.7373 141.151 51.1667 140.622 51.1667ZM124.331 49.25H139.664V33.9167H124.331V49.25Z" fill="white"/>
<path d="M134.872 39.6667H129.122C128.593 39.6667 128.164 39.2373 128.164 38.7083V32.9583C128.164 32.4293 128.593 32 129.122 32H134.872C135.401 32 135.831 32.4293 135.831 32.9583V38.7083C135.831 39.2373 135.401 39.6667 134.872 39.6667ZM130.081 37.75H133.914V33.9167H130.081V37.75Z" fill="white"/>
<path d="M132.003 68.4167H113.794C113.265 68.4167 112.836 67.9873 112.836 67.4583V50.2083C112.836 49.6793 113.265 49.25 113.794 49.25H132.003C132.532 49.25 132.961 49.6793 132.961 50.2083V67.4583C132.961 67.9873 132.532 68.4167 132.003 68.4167ZM114.753 66.5H131.044V51.1667H114.753V66.5Z" fill="white"/>
<path d="M125.294 56.9167H119.544C119.015 56.9167 118.586 56.4873 118.586 55.9583V50.2083C118.586 49.6793 119.015 49.25 119.544 49.25H125.294C125.823 49.25 126.253 49.6793 126.253 50.2083V55.9583C126.253 56.4873 125.823 56.9167 125.294 56.9167ZM120.503 55H124.336V51.1667H120.503V55Z" fill="white"/>
<path d="M150.206 68.4167H131.997C131.468 68.4167 131.039 67.9873 131.039 67.4583V50.2083C131.039 49.6793 131.468 49.25 131.997 49.25H150.206C150.735 49.25 151.164 49.6793 151.164 50.2083V67.4583C151.164 67.9873 150.735 68.4167 150.206 68.4167ZM132.956 66.5H149.247V51.1667H132.956V66.5Z" fill="white"/>
<path d="M144.458 56.9167H138.708C138.179 56.9167 137.75 56.4873 137.75 55.9583V50.2083C137.75 49.6793 138.179 49.25 138.708 49.25H144.458C144.987 49.25 145.417 49.6793 145.417 50.2083V55.9583C145.417 56.4873 144.987 56.9167 144.458 56.9167ZM139.667 55H143.5V51.1667H139.667V55Z" fill="white"/>
<path d="M154.042 78H146.375C145.846 78 145.417 77.5707 145.417 77.0417V74.1667H137.75V77.0417C137.75 77.5707 137.321 78 136.792 78H127.208C126.679 78 126.25 77.5707 126.25 77.0417V74.1667H118.583V77.0417C118.583 77.5707 118.154 78 117.625 78H109.958C109.429 78 109 77.5707 109 77.0417V67.4583C109 66.9293 109.429 66.5 109.958 66.5H154.042C154.571 66.5 155 66.9293 155 67.4583V77.0417C155 77.5707 154.571 78 154.042 78ZM147.333 76.0833H153.083V68.4167H110.917V76.0833H116.667V73.2083C116.667 72.6793 117.096 72.25 117.625 72.25H127.208C127.737 72.25 128.167 72.6793 128.167 73.2083V76.0833H135.833V73.2083C135.833 72.6793 136.263 72.25 136.792 72.25H146.375C146.904 72.25 147.333 72.6793 147.333 73.2083V76.0833Z" fill="white"/>
</g>
<defs>
<filter id="filter0_d_5856_2323" x="72" y="1" width="119" height="119" filterUnits="userSpaceOnUse" color-interpolation-filters="sRGB">
<feFlood flood-opacity="0" result="BackgroundImageFix"/>
<feColorMatrix in="SourceAlpha" type="matrix" values="0 0 0 0 0 0 0 0 0 0 0 0 0 0 0 0 0 0 127 0" result="hardAlpha"/>
<feOffset dy="4"/>
<feGaussianBlur stdDeviation="6.5"/>
<feColorMatrix type="matrix" values="0 0 0 0 0.117326 0 0 0 0 0.138241 0 0 0 0 0.258333 0 0 0 0.11 0"/>
<feBlend mode="multiply" in2="BackgroundImageFix" result="effect1_dropShadow_5856_2323"/>
<feBlend mode="normal" in="SourceGraphic" in2="effect1_dropShadow_5856_2323" result="shape"/>
</filter>
<clipPath id="clip0_5856_2323">
<rect width="46" height="46" fill="white" transform="translate(109 32)"/>
</clipPath>
</defs>
</svg>
